<svg id="Layer_1" enable-background="new 0 0 512.125 512.125" height="512" viewBox="0 0 512.125 512.125" width="512" xmlns="http://www.w3.org/2000/svg"><g><path d="m484.033 181.29c52.241 159.721-71.46 319.146-233.6 314.818-63.553-1.668-121.319-27.429-164.204-70.315-93.706-93.706-93.755-245.656 0-339.411 127.074-127.075 342.542-73.753 397.804 94.908z" fill="#a2d0ff"/></g><g><path d="m493.289 293.036c-3.77 24.01-11.35 48.03-23.17 71.37-76 149.88-276.2 175.14-387.79 57.43 7.402-25.139 30.947-52.922 56.7-52.78 8.8.06 17.2 3.39 25.62 5.97 23.274 7.127 74.765 14.375 84.32-8.37 2.32-5.55 1.68-11.83 1.47-17.85-1.088-29.902 13.283-48.393 24.81-48.01 3.6.13 6.87 2.01 10.1 3.61 39.398 19.451 44.923-24.862 68.42-37.31 8.99-4.76 20.44-4.53 29.23.61 12.61 7.36 18.56 22.97 31.02 30.61 23.956 14.676 53.891-5.841 79.27-5.28z" fill="#8bc4ff"/></g><g><path d="m258.4 32.074c-.534 0-.67-.018-1.987-.012-9.012 0-16.031-7.228-16.068-15.932-.038-8.837 7.095-16.03 15.932-16.068.803-.004 1.593.001 2.392.014 8.835.151 15.875 7.437 15.724 16.271-.15 8.742-7.284 15.727-15.993 15.727z" fill="#2e58ff"/></g><g><path d="m256.066 512.064c-155.62 0-273.845-136.972-253.858-289.424 14.514-110.814 97.472-194.089 198.001-216.451 8.624-1.921 17.173 3.519 19.092 12.144 1.919 8.626-3.518 17.174-12.144 19.093-88.119 19.601-160.55 92.638-173.221 189.372-17.722 135.168 87.31 252.515 220.834 253.262 58.187.399 115.176-21.626 158.757-64.721 86.504-85.54 89.956-227.605 1.774-316.778-29.887-30.224-67.464-51.228-108.668-60.739-8.61-1.987-13.979-10.578-11.991-19.188s10.58-13.979 19.188-11.991c134.224 30.982 223.222 165.297 192.06 305.274-25.352 113.874-126.816 200.147-249.824 200.147z" fill="#2e58ff"/></g><g fill="#2e58ff"><path d="m235.283 186.215 4.687-4.687v29.255c0 8.837 7.164 16 16 16s16-7.163 16-16v-29.255l4.687 4.687c6.249 6.249 16.379 6.248 22.627 0 6.249-6.248 6.249-16.379 0-22.627-34.867-34.867-33.068-33.525-36.471-35.133-6.229-2.96-13.516-1.515-18.161 3.139l-31.994 31.994c-6.249 6.248-6.249 16.379 0 22.627 6.246 6.249 16.377 6.249 22.625 0z"/><path d="m181.459 272.039h29.255c8.836 0 16-7.163 16-16s-7.164-16-16-16h-29.255l4.686-4.687c6.249-6.248 6.249-16.379 0-22.627-6.248-6.248-16.379-6.248-22.627 0l-31.994 31.994c-4.632 4.626-6.115 11.885-3.145 18.149 1.709 3.62 1.26 2.604 35.139 36.483 3.124 3.124 7.219 4.687 11.313 4.687 14.126 0 21.421-17.206 11.313-27.313z"/><path d="m276.656 325.862-4.687 4.687v-29.255c0-8.837-7.164-16-16-16s-16 7.163-16 16v29.255l-4.687-4.687c-6.248-6.248-16.379-6.248-22.627 0-6.249 6.248-6.249 16.379 0 22.627 34.497 34.497 33.22 33.817 37.193 35.469 2.417.998 5.051 1.399 7.699 1.138 7.579-.739 7.522-2.393 41.735-36.607 6.249-6.248 6.249-16.379 0-22.627-6.247-6.248-16.378-6.248-22.626 0z"/><path d="m381.482 266.177c2.63-3.2 3.97-7.406 3.545-11.715-.737-7.566-2.398-7.528-36.607-41.737-6.248-6.248-16.379-6.248-22.627 0-6.249 6.248-6.249 16.379 0 22.627l4.686 4.687h-29.255c-8.836 0-16 7.163-16 16s7.164 16 16 16h29.255l-4.686 4.687c-10.109 10.109-2.811 27.313 11.313 27.313 4.095 0 8.189-1.563 11.313-4.687 34.785-34.784 32.321-32.27 33.063-33.175z"/></g></svg>