<svg id="Layers_1_" enable-background="new 0 0 64 64" height="512" viewBox="0 0 64 64" width="512" xmlns="http://www.w3.org/2000/svg"><path d="m9 38h16c.552 0 1-.448 1-1v-10c0-.552-.448-1-1-1h-16c-.552 0-1 .448-1 1v10c0 .552.448 1 1 1z" fill="#cce4ff"/><path d="m55 26h-16c-.552 0-1 .448-1 1v10c0 .552.448 1 1 1h16c.552 0 1-.448 1-1v-10c0-.552-.448-1-1-1z" fill="#cce4ff"/><path d="m55 44h-16c-.552 0-1 .448-1 1v10c0 .552.448 1 1 1h16c.552 0 1-.448 1-1v-10c0-.552-.448-1-1-1z" fill="#cce4ff"/><path d="m55 8h-16c-.552 0-1 .448-1 1v10c0 .552.448 1 1 1h16c.552 0 1-.448 1-1v-10c0-.552-.448-1-1-1z" fill="#cce4ff"/><g fill="#007aff"><path d="m9 38h5c.552 0 1-.448 1-1s-.448-1-1-1h-4v-8h4c.552 0 1-.448 1-1s-.448-1-1-1h-5c-.552 0-1 .448-1 1v10c0 .552.448 1 1 1z"/><path d="m55 8h-5c-.552 0-1 .448-1 1s.448 1 1 1h4v8h-4c-.552 0-1 .448-1 1s.448 1 1 1h5c.552 0 1-.448 1-1v-10c0-.552-.448-1-1-1z"/><path d="m55 26h-16c-.552 0-1 .448-1 1v2h-2v-12h2v2c0 .552.448 1 1 1h5c.552 0 1-.448 1-1s-.448-1-1-1h-4v-2-4-2h4c.552 0 1-.448 1-1s-.448-1-1-1h-5c-.552 0-1 .448-1 1v2h-7c-.552 0-1 .448-1 1v17h-4v-2c0-.552-.448-1-1-1h-5c-.552 0-1 .448-1 1s.448 1 1 1h4v2 4 2h-4c-.552 0-1 .448-1 1s.448 1 1 1h5c.552 0 1-.448 1-1v-2h4v17c0 .552.448 1 1 1h7v2c0 .552.448 1 1 1h5c.552 0 1-.448 1-1s-.448-1-1-1h-4v-2-4-2h4c.552 0 1-.448 1-1s-.448-1-1-1h-5c-.552 0-1 .448-1 1v2h-2v-12h2v2c0 .552.448 1 1 1h16c.552 0 1-.448 1-1v-10c0-.552-.448-1-1-1zm-17 7h-3c-.552 0-1 .448-1 1v14c0 .552.448 1 1 1h3v2h-6v-17c0-.552-.448-1-1-1h-5v-2h5c.552 0 1-.448 1-1v-17h6v2h-3c-.552 0-1 .448-1 1v14c0 .552.448 1 1 1h3zm16 3h-14v-2-4-2h14z"/><path d="m55 44h-5c-.552 0-1 .448-1 1s.448 1 1 1h4v8h-4c-.552 0-1 .448-1 1s.448 1 1 1h5c.552 0 1-.448 1-1v-10c0-.552-.448-1-1-1z"/><circle cx="17" cy="27" r="1"/><circle cx="17" cy="37" r="1"/><circle cx="47" cy="9" r="1"/><circle cx="47" cy="19" r="1"/><circle cx="47" cy="45" r="1"/><circle cx="47" cy="55" r="1"/></g></svg>