<svg id="Layer_1" enable-background="new 0 0 512.054 512.054" height="512" viewBox="0 0 512.054 512.054" width="512" xmlns="http://www.w3.org/2000/svg"><path d="m488.027 462.054h-13v-28c0-8.84-7.16-16-16-16h-55v-247h21c8.84 0 16-7.16 16-16v-28h18c8.84 0 16-7.16 16-16v-47.61c0-7.3-4.93-13.67-11.99-15.49-219.287-42.816-205.309-41.345-214.53-38.95l-199.49 38.95c-7.06 1.82-11.99 8.19-11.99 15.49v47.61c0 8.84 7.16 16 16 16h18v28c0 8.84 7.16 16 16 16h21v247h-55c-8.84 0-16 7.16-16 16v28h-13c-8.84 0-16 7.16-16 16v10c0 8.84 7.16 16 16 16h464c8.84 0 16-7.16 16-16v-10c0-8.84-7.16-16-16-16zm-142-44h-61v-247h61zm-180-247h61v247h-61z" fill="#d1e7ff"/><path d="m503.867 475.773c-5.362-3.027 24.039-2.05-471.84-2.05-8.84 0-16 7.16-16 16 0 10.81-.054 10.822.16 12.28-4.87-2.74-8.16-7.96-8.16-13.95v-10c0-8.84 7.16-16 16-16h464c8.07.001 14.73 5.961 15.84 13.72z" fill="#e8f3ff"/><path d="m504.027 488.054c0 8.84-7.16 16-16 16-495.781 0-466.386 1.029-471.84-2.05-.213-1.454-.16-1.368-.16-12.28 0-8.84 7.16-16 16-16 495.781 0 466.386-1.029 471.84 2.05.213 1.453.16 1.367.16 12.28z" fill="#d1e7ff"/><path d="m441.027 127.054v28c0 8.84-7.16 16-16 16-10.72 0-327.256 0-338 0-8.84 0-16-7.16-16-16v-28z" fill="#b9dcff"/><path d="m475.027 63.444v47.61c0 8.84-7.16 16-16 16h-406c-8.16 0-14.89-6.11-15.87-14h403.2c8.84 0 16-7.16 16-16 0-51.912.11-48.427-.26-50.45l6.94 1.35c7.06 1.819 11.99 8.189 11.99 15.49z" fill="#b9dcff"/><path d="m300.627 16.244-263.6 53.61v-6.41c0-7.3 4.93-13.67 11.99-15.49l199.49-38.95c8.234-2.138 9.171-1.146 52.12 7.24z" fill="#e8f3ff"/><path d="m404.027 171.054v247h-58v-14.87c21.05-9.89 34.5-31.05 34.5-54.32v-177.81z" fill="#b9dcff"/><path d="m285.027 171.054v247h-58v-14.87c21.05-9.89 34.5-31.05 34.5-54.32v-177.81z" fill="#b9dcff"/><path d="m142.527 171.054v177.81c0 23.271-13.45 44.431-34.5 54.32v-232.13z" fill="#e8f3ff"/><path d="m475.027 434.054v28h-219l-148-44h351c8.84 0 16 7.16 16 16z" fill="#b9dcff"/><g fill="#2e58ff"><path d="m488.027 454.054h-5v-20c0-13.233-10.767-24-24-24h-47v-231h13c23.759 0 31.355-32 16-32-4.418 0-8 3.582-8 8 0 4.411-3.589 8-8 8-44.264 0-303.199 0-338 0-4.411 0-8-3.589-8-8v-20h380c13.233 0 24-10.767 24-24v-47.615c0-12.03-8.99-21.529-18.458-23.341l-199.269-38.908c-11.08-2.783-7.727-2.113-110.706 17.995-4.336.847-7.165 5.048-6.318 9.385s5.051 7.169 9.385 6.318c103.685-20.245 97.149-19.887 103.88-18.145.38.098-8.911-1.725 199.685 39.004 3.426.978 5.802 4.112 5.802 7.691v47.614c0 4.411-3.589 8-8 8h-406c-4.411 0-8-3.589-8-8v-47.613c0-3.579 2.375-6.714 5.802-7.691l35.929-7.016c4.336-.847 7.165-5.048 6.318-9.385-.847-4.336-5.05-7.166-9.385-6.318-38.811 7.578-36.316 7.083-36.678 7.176-10.59 2.741-17.986 12.296-17.986 23.234v47.614c0 13.233 10.767 24 24 24h10v20c0 13.233 10.766 24 24 24h13v231h-47c-13.233 0-24 10.767-24 24v20h-5c-13.234 0-24 10.767-24 24v10c0 13.233 10.766 24 24 24h464c13.234 0 24-10.767 24-24v-10c-.001-13.233-10.767-23.999-24.001-23.999zm-92-275v231h-42v-231zm-103 231v-231h45v231zm-16-231v231h-42v-231zm-103 231v-231h45v231zm-58-231h42v231h-42zm380 309c0 4.411-3.589 8-8 8h-464c-4.411 0-8-3.589-8-8v-10c0-4.411 3.589-8 8-8h289.25c4.418 0 8-3.582 8-8s-3.582-8-8-8h-268.25v-20c0-4.411 3.589-8 8-8h406c4.411 0 8 3.589 8 8v20h-112.75c-4.418 0-8 3.582-8 8s3.582 8 8 8h133.75c4.411 0 8 3.589 8 8z"/><path d="m130.627 32.014c-2.06-10.533-19.083-7.134-17.036 3.331 2.065 10.567 19.078 7.11 17.036-3.331z"/></g></svg>