<svg id="Layer_1" enable-background="new 0 0 480 480" height="512" viewBox="0 0 480 480" width="512" xmlns="http://www.w3.org/2000/svg"><path d="m443 72.5v235.41c0 13.255-10.745 24-24 24h-387c-13.255 0-24-10.745-24-24v-235.41c0-13.255 10.745-24 24-24h387c13.255 0 24 10.745 24 24z" fill="#d1e7ff"/><path d="m443 72.5v16.399c0 9.062-7.521 16.329-16.577 15.983-149.564-5.702-290.399 66.228-311.834 213.413-1.141 7.832-7.901 13.615-15.816 13.615h-66.773c-13.255 0-24-10.745-24-24v-235.41c0-13.255 10.745-24 24-24h387c13.255 0 24 10.745 24 24z" fill="#e8f3ff"/><path d="m225.5 123.2c37.01 0 67.01 30 67.01 67 0 37.01-30 67.01-67.01 67.01s-67.01-30-67.01-67.01c0-37 30-67 67.01-67z" fill="#b9dcff"/><path d="m261.53 133.69c-39.88 17.329-74.54 42.369-100.44 75.06-12.298-42.86 19.894-85.55 64.41-85.55 13.26 0 25.62 3.85 36.03 10.49z" fill="#d1e7ff"/><path d="m472 334.5c0 53.598-43.461 97-97 97-72.441 0-119.219-76.719-86.47-141 16.062-31.491 48.795-53 86.47-53 53.529 0 97 43.393 97 97z" fill="#d1e7ff"/><path d="m419.121 247.957c14.377 7.263 9.518 29.14-6.584 29.57-51.971 1.39-93.025 42.979-94.503 94.162-.465 16.098-22.203 21.135-29.515 6.786-14.042-27.556-14.03-60.414.011-87.975 25.998-50.972 85.769-65.187 130.591-42.543z" fill="#e8f3ff"/><path d="m375 229.5c-57.897 0-105 47.103-105 105s47.103 105 105 105 105-47.103 105-105-47.103-105-105-105zm0 194c-49.075 0-89-39.925-89-89s39.925-89 89-89 89 39.925 89 89-39.925 89-89 89zm-8-109v3.237c0 3.518 2.256 6.586 5.614 7.636l9.544 2.982c10.074 3.149 16.842 12.355 16.842 22.908v3.237c0 11.519-8.159 21.165-19 23.473v2.527c0 4.418-3.582 8-8 8s-8-3.582-8-8v-4.68c-7.714-3.997-13-12.051-13-21.32 0-4.418 3.582-8 8-8s8 3.582 8 8c0 4.411 3.589 8 8 8s8-3.589 8-8v-3.237c0-3.518-2.256-6.586-5.614-7.636l-9.544-2.982c-10.074-3.149-16.842-12.355-16.842-22.908v-3.237c0-10.429 6.689-19.321 16-22.624v-3.376c0-4.418 3.582-8 8-8s8 3.582 8 8v3.376c9.311 3.303 16 12.195 16 22.624 0 4.418-3.582 8-8 8s-8-3.582-8-8c0-4.411-3.589-8-8-8s-8 3.589-8 8zm-124 17.409c0 4.418-3.582 8-8 8h-203c-17.645 0-32-14.355-32-32v-235.409c0-17.645 14.355-32 32-32h387c17.645 0 32 14.355 32 32v139.667c0 4.418-3.582 8-8 8s-8-3.582-8-8v-139.667c0-8.822-7.178-16-16-16h-387c-8.822 0-16 7.178-16 16v235.409c0 8.822 7.178 16 16 16h203c4.418 0 8 3.582 8 8zm-92.508-141.705c0 41.359 33.648 75.008 75.008 75.008s75.008-33.648 75.008-75.008-33.648-75.007-75.008-75.007-75.008 33.648-75.008 75.007zm134.016 0c0 32.537-26.471 59.008-59.008 59.008s-59.008-26.471-59.008-59.008c0-32.536 26.471-59.007 59.008-59.007s59.008 26.471 59.008 59.007zm-179.841-8c4.418 0 8 3.582 8 8s-3.582 8-8 8h-31.97c-4.418 0-8-3.582-8-8s3.582-8 8-8zm273.636 0c4.418 0 8 3.582 8 8s-3.582 8-8 8h-31.97c-4.418 0-8-3.582-8-8s3.582-8 8-8z" fill="#2e58ff"/></svg>