<?xml version="1.0" encoding="UTF-8"?>
<svg width="214.6mm" height="87.81mm" version="1.1" viewBox="0 0 214.6 87.81" xmlns="http://www.w3.org/2000/svg">
 <defs>
  <clipPath id="clipPath18">
   <path d="m0 0h841.9v595.3h-841.9z"/>
  </clipPath>
 </defs>
 <g transform="translate(-37.84 -89.05)">
  <g transform="matrix(.3528 0 0 -.3528 -6.907 246.4)" clip-path="url(#clipPath18)">
   <g transform="matrix(1 0 .02269 -1 402.5 290)">
    <g transform="translate(196.1 87.68)">
     <path d="m0 0 2.342-107c-0.036-1.503-1.068-2.483-2.6-2.483h-50.54c-2.097 0-3.424 1.13-3.793 3.226l-2.383 13.52c-0.346 1.964 0.404 3.125 2.263 3.506l4.287 0.876c0.494 0.101 0.66 0.43 0.476 0.948l-28.75 87.33c-0.571 1.995 0.622 3.5 2.671 3.5l-2e-3 -3e-3h22.77c1.817 0 3.378-1.274 3.838-3.073 1.502-5.867 3.215-12.13 5.069-18.64 0.121-0.423 0.494-0.712 0.918-0.712h14.88c0.427 0 0.698 0.292 0.666 0.718l-1.576 18.63c-0.174 1.799 0.937 3.073 2.755 3.073h22.82c2.028 0 3.741-1.482 3.889-3.458m-23.16-87.82-3.234 46.28c-0.047 0.839-0.516 1.136-0.998 1.141v-7e-3h-9.505c-0.524 5e-3 -0.803-0.177-0.648-0.723 4.643-16.44 13.42-46.69 13.42-46.69 0.029-0.161 0.997-0.161 0.968 0" fill="#079ae1"/>
    </g>
    <g transform="translate(-88.37 87.68)">
     <path d="m0 0 2.342-107c-0.036-1.503-1.068-2.483-2.6-2.483h-50.54c-2.097 0-3.424 1.13-3.793 3.226l-2.383 13.52c-0.346 1.964 0.404 3.125 2.263 3.506l4.287 0.876c0.494 0.101 0.66 0.43 0.476 0.948l-28.75 87.33c-0.571 1.995 0.622 3.5 2.671 3.5l-2e-3 -3e-3h22.77c1.817 0 3.378-1.274 3.838-3.073 1.502-5.867 3.215-12.13 5.069-18.64 0.121-0.423 0.494-0.712 0.918-0.712h14.88c0.427 0 0.698 0.292 0.666 0.718l-1.576 18.63c-0.174 1.799 0.937 3.073 2.755 3.073h22.82c2.028 0 3.741-1.482 3.889-3.458m-23.16-87.82-3.234 46.28c-0.047 0.839-0.516 1.136-0.998 1.141v-7e-3h-9.505c-0.524 5e-3 -0.803-0.177-0.648-0.723 4.643-16.44 13.42-46.69 13.42-46.69 0.029-0.161 0.997-0.161 0.968 0" fill="#079ae1"/>
    </g>
    <g transform="translate(110.5 87.68)">
     <path d="m0 0 2.342-107c-0.036-1.503-1.068-2.483-2.6-2.483h-50.54c-2.097 0-3.424 1.13-3.793 3.226l-2.383 13.52c-0.346 1.964 0.404 3.125 2.263 3.506l4.287 0.876c0.494 0.101 0.66 0.43 0.476 0.948l-28.75 87.33c-0.571 1.995 0.622 3.5 2.671 3.5l-2e-3 -3e-3h22.77c1.817 0 3.378-1.274 3.838-3.073 1.502-5.867 3.215-12.13 5.069-18.64 0.121-0.423 0.494-0.712 0.918-0.712h14.88c0.427 0 0.698 0.292 0.666 0.718l-1.576 18.63c-0.174 1.799 0.937 3.073 2.755 3.073h22.82c2.028 0 3.741-1.482 3.889-3.458m-23.16-87.82-3.234 46.28c-0.047 0.839-0.516 1.136-0.998 1.141v-7e-3h-9.505c-0.524 5e-3 -0.803-0.177-0.648-0.723 4.643-16.44 13.42-46.69 13.42-46.69 0.029-0.161 0.997-0.161 0.968 0" fill="#079ae1"/>
    </g>
    <g transform="translate(38.77 -18.54)">
     <path d="m0 0c0.369-2.097-0.561-3.226-2.658-3.226h-22.58c-1.774 0-3.228 0.799-4.164 2.581l-26.38 50.18c-0.329 0.626-0.962 0.626-1.081-0.15l-7.703-50.03c-0.299-1.938-1.32-2.581-3.094-2.581h-31.93c-2.097 0-3.425 1.129-3.794 3.226l-2.382 13.51c-0.347 1.964 0.403 3.126 2.263 3.506l4.621 0.907c0.467 0.092 0.656 0.382 0.569 0.874l-15.46 87.65c-0.369 2.097 0.562 3.226 2.658 3.226v2e-3h22.9c2.097 0 3.308-0.968 3.634-3.226l7.772-53.22c0.113-0.645 0.665-0.973 0.807-0.153l5.117 29.67c0.283 1.64 1.48 2.581 3.254 2.581h9.999c1.775 0 3.307-0.939 4.165-2.581l15.85-30.31c0.429-0.821 1.042-0.494 0.915 0.152l-10.63 53.87c-0.416 2.096 0.561 3.225 2.658 3.225h22.1c2.097 0 3.424-1.129 3.793-3.225z" fill="#079ae1"/>
    </g>
    <g transform="translate(-161.4 -17.57)">
     <path d="m0 0c0.531-2.097-0.077-3.226-1.927-3.71-5.579-1.29-11.6-1.935-17.7-2.096-21.72-0.323-36.28 9.48-40.1 29.84-2.379 12.69 0.316 22.9 10.41 35.16 9.032 10.97 11.86 13.23 10.72 19.7-1.587 9.004-10.14 9.972-15.63 9.972-4.838 0-8.917-0.645-12.32-1.456-2.013-0.479-3.666 0.65-4.242 2.742l-3.906 14.2c-0.576 2.093 0.048 3.387 1.927 3.709 6.841 1.452 15.73 2.258 23.96 2.258h2e-3c19.52 0 36.62-8.287 40.29-29.07 2.392-13.56-2.419-22.86-11.32-33.67-9.688-11.76-11.07-18.63-10.33-22.84 1.377-7.81 9.233-8.455 13.59-8.455 2.419 0 5.398 0.484 8.34 1.153 2.021 0.46 3.671-0.669 4.242-2.763z" fill="#079ae1"/>
    </g>
    <g transform="translate(-229.5 -18.53)">
     <path d="m0 0c0.369-2.097-0.561-3.226-2.658-3.226h-22.9c-2.097 0-3.424 1.129-3.793 3.226l-18.77 106.4c-0.369 2.096 0.561 3.225 2.658 3.225h22.9c2.097 0 3.425-1.129 3.794-3.225z" fill="#079ae1"/>
    </g>
   </g>
   <g transform="translate(731.7 402.2)">
    <path d="m0 0-40.5 2e-3 -0.013 40.62c0 2.597-3.622 4.54-5.955 2.207l-28.53-28.53-28.52 28.58c-2.17 2.17-5.965 0.751-5.965-2.435l0.011-40.46-40.54 0.031c-2.862 0-4.643-3.627-2.323-5.925l28.58-28.6-28.7-28.62c-2.023-2.026-0.717-5.852 2.549-5.835l40.44-8e-3 -1e-3 -40.35c3e-3 -3.06 3.616-4.773 5.849-2.54l28.61 28.62 28.59-28.6c2.065-2.066 5.893-0.803 5.893 2.316l-0.012 40.56 40.49 3e-3c3.414-3e-3 4.358 3.965 2.43 5.892l-1.081 1.077-27.57 27.56 28.51 28.34c2.332 2.421 0.879 6.106-2.253 6.106m-35.19-19.86-14.69-14.61 14.21-14.2 0.557-0.555c0.993-0.993 0.507-3.038-1.252-3.036l-20.87-2e-3 6e-3 -20.9c0-1.607-1.972-2.258-3.036-1.194l-14.74 14.74-14.74-14.75c-1.151-1.151-3.013-0.268-3.014 1.309v20.79l-20.84 4e-3c-1.683-9e-3 -2.356 1.963-1.313 3.006l14.79 14.75-14.73 14.74c-1.195 1.184-0.277 3.053 1.198 3.053l20.89-0.016-6e-3 20.85c0 1.642 1.956 2.373 3.074 1.255l14.7-14.73 14.7 14.7c1.202 1.202 3.068 0.201 3.068-1.137l7e-3 -20.93h20.87c1.614 0 2.363-1.899 1.16-3.147" fill="#079ae1"/>
   </g>
  </g>
 </g>
</svg>
