<?xml version="1.0" encoding="UTF-8" standalone="no"?>
<!-- Created with Inkscape (http://www.inkscape.org/) -->
<svg xmlns:dc="http://purl.org/dc/elements/1.1/" xmlns:cc="http://creativecommons.org/ns#" xmlns:rdf="http://www.w3.org/1999/02/22-rdf-syntax-ns#" xmlns:svg="http://www.w3.org/2000/svg" xmlns="http://www.w3.org/2000/svg" xmlns:xlink="http://www.w3.org/1999/xlink" xmlns:sodipodi="http://sodipodi.sourceforge.net/DTD/sodipodi-0.dtd" xmlns:inkscape="http://www.inkscape.org/namespaces/inkscape" version="1.1" width="200" height="201.80893" id="svg12852" inkscape:version="0.48.2 r9819" sodipodi:docname="Eesti Keskerakond Teillogo.svg">
  <sodipodi:namedview pagecolor="#ffffff" bordercolor="#666666" borderopacity="1" objecttolerance="10" gridtolerance="10" guidetolerance="10" inkscape:pageopacity="0" inkscape:pageshadow="2" inkscape:window-width="1234" inkscape:window-height="813" id="namedview48" showgrid="false" fit-margin-top="0" fit-margin-left="0" fit-margin-right="0" fit-margin-bottom="0" inkscape:zoom="1" inkscape:cx="265.27852" inkscape:cy="40.111294" inkscape:window-x="1920" inkscape:window-y="0" inkscape:window-maximized="0" inkscape:current-layer="g12589"/>
  <defs id="defs12854">
    <clipPath id="clipPath12591">
      <path d="m 0,0 595.275,0 0,841.89 L 0,841.89 0,0 z" id="path12593" inkscape:connector-curvature="0"/>
    </clipPath>
    <linearGradient x1="0" y1="0" x2="1" y2="0" id="linearGradient12577" gradientUnits="userSpaceOnUse" gradientTransform="matrix(7.8101349,-55.571991,-55.571991,-7.8101349,167.08099,691.82199)" spreadMethod="pad">
      <stop id="stop12579" style="stop-color:#fcc907;stop-opacity:1" offset="0"/>
      <stop id="stop12581" style="stop-color:#007b5e;stop-opacity:1" offset="0.93406701"/>
      <stop id="stop12583" style="stop-color:#007b5e;stop-opacity:1" offset="1"/>
    </linearGradient>
    <linearGradient x1="0" y1="0" x2="1" y2="0" id="linearGradient12981" xlink:href="#linearGradient12577" gradientUnits="userSpaceOnUse" gradientTransform="matrix(7.8101349,-55.571991,-55.571991,-7.8101349,167.08099,691.82199)" spreadMethod="pad"/>
  </defs>
  <metadata id="metadata12857">
    <rdf:RDF>
      <cc:Work rdf:about="">
        <dc:format>image/svg+xml</dc:format>
        <dc:type rdf:resource="http://purl.org/dc/dcmitype/StillImage"/>
        <dc:title/>
      </cc:Work>
    </rdf:RDF>
  </metadata>
  <g transform="translate(-103.24706,-194.93352)" id="layer1">
    <g transform="matrix(2.5013934,0,0,2.5013934,90.038914,681.07545)" id="g12945">
      <g transform="matrix(1.25,0,0,-1.25,-39.811429,682.76209)" id="g12587">
        <g clip-path="url(#clipPath12591)" id="g12589">
          <g transform="matrix(1.7364708,0,0,1.7364708,98.490547,638.28641)" id="g12639">
            <path d="m 0,0 c -1.23,1.172 -2.789,2.996 -4.677,5.341 l -6.227,7.291 c 1.142,1.614 1.064,3.832 -0.247,5.358 l 0.01,0.009 -0.01,0.013 c 1.473,1.713 1.398,4.307 -0.224,5.928 -0.217,0.219 -0.456,0.408 -0.708,0.574 l 4.623,5.869 c 0.727,0.94 2.996,3.479 4.722,5.473 l 0.957,0 0,0.656 -13.525,0 0,-0.656 0.939,0 c -0.466,-1.053 -2.251,-3.819 -3.332,-5.473 l -0.103,-0.16 c -1.598,1.032 -3.729,0.921 -5.207,-0.35 l -0.01,0.01 -0.011,-0.011 -0.129,0.091 0,0.42 c 0,2.601 0,3.919 0.252,5.473 l 0.927,0 0,0.656 -11.851,0 0,-0.656 0.969,0 c 0.252,-1.554 0.252,-2.872 0.252,-5.473 l 0,-5.292 c -0.772,-0.186 -1.482,-0.577 -2.059,-1.152 -1.623,-1.623 -1.697,-4.217 -0.225,-5.929 l -0.008,-0.011 0.01,-0.012 c -1.474,-1.711 -1.399,-4.306 0.223,-5.928 0.577,-0.576 1.287,-0.966 2.059,-1.151 l 0,-5.567 c 0,-2.527 0,-3.843 -0.232,-5.341 l -0.989,0 0,-0.657 11.851,0 0,0.657 -0.947,0 c -0.232,1.498 -0.232,2.814 -0.232,5.341 l 0,0.699 0.123,0.087 0.011,-0.01 0.011,0.01 c 1.713,-1.473 4.307,-1.397 5.929,0.224 l 0.065,0.072 0.791,-1.082 C -14.636,3.195 -13,1.192 -12.386,0 l -1.085,0 0,-0.657 14.362,0 L 0.891,0 0,0 z" id="path12641" style="fill:#007b5e;fill-opacity:1;fill-rule:nonzero;stroke:none" inkscape:connector-curvature="0"/>
          </g>
          <g transform="matrix(1.7364708,0,0,1.7364708,68.917237,678.96671)" id="g12643">
            <path d="m 0,0 c 1.433,1.414 3.732,1.408 5.141,-0.001 0.708,-0.709 1.063,-1.64 1.063,-2.572 0,-0.93 -0.353,-1.86 -1.061,-2.568 L 4.912,-5.373 4.91,-5.38 5.141,-5.71 c 0.581,-0.58 0.909,-1.344 1.003,-2.158 -0.304,0.304 -2.49,2.492 -2.49,2.492 l -0.976,0.02 -0.17,0 3.654,-3.653 C 6.086,-9.267 5.975,-9.563 5.839,-9.847 5.692,-9.699 1.37,-5.376 1.37,-5.376 l -0.975,0.02 -0.171,0 c 0,0 5.095,-5.095 5.187,-5.186 l -0.27,-0.309 -0.309,-0.271 c -0.091,0.091 -5.746,5.746 -5.746,5.746 l -0.974,0.02 -0.171,0 c 0,0 6.038,-6.038 6.192,-6.192 -0.284,-0.137 -0.583,-0.249 -0.895,-0.305 l -6.435,6.477 -0.976,0.02 -0.169,0 c 0,0 6.173,-6.172 6.501,-6.501 -0.811,0.093 -1.576,0.421 -2.16,1.006 0,0 -5.328,5.326 -5.425,5.424 C -5.329,-5.329 0,0 0,0 m -11.433,-11.434 c 0.016,0.015 4.941,4.94 5.441,5.439 0.097,-0.096 5.423,-5.424 5.423,-5.424 0.686,-0.684 1.063,-1.598 1.063,-2.571 0,-0.972 -0.377,-1.885 -1.063,-2.571 -1.416,-1.416 -3.722,-1.418 -5.139,-0.003 l -0.233,0.233 -0.336,-0.231 c -0.581,-0.581 -1.345,-0.908 -2.158,-1.003 0.304,0.304 2.492,2.491 2.492,2.491 l 0.019,0.976 0,0.169 -3.652,-3.652 c -0.258,0.075 -0.554,0.184 -0.838,0.32 0.147,0.148 4.471,4.471 4.471,4.471 l 0.019,0.975 0,0.171 c 0,0 -5.094,-5.097 -5.186,-5.187 l -0.309,0.27 c 0,0 -0.19,0.216 -0.27,0.31 0.091,0.09 5.746,5.744 5.746,5.744 l 0.019,0.976 0,0.17 c 0,0 -6.039,-6.039 -6.192,-6.193 -0.137,0.286 -0.249,0.584 -0.305,0.896 l 6.478,6.436 0.019,0.975 0,0.169 c 0,0 -6.173,-6.173 -6.501,-6.502 0.092,0.804 0.415,1.564 0.992,2.146 m 3.792,5.935 c 0,0 -6.172,6.173 -6.501,6.503 0.812,-0.095 1.578,-0.424 2.162,-1.008 0,0 5.324,-5.325 5.422,-5.424 -0.098,-0.098 -5.426,-5.426 -5.426,-5.426 -1.43,-1.414 -3.731,-1.408 -5.14,0 -0.709,0.709 -1.062,1.64 -1.062,2.572 0,0.93 0.353,1.86 1.06,2.568 l 0.232,0.232 10e-4,0.008 -0.231,0.329 c -0.581,0.581 -0.91,1.345 -1.002,2.158 0.303,-0.304 2.49,-2.491 2.49,-2.491 l 0.975,-0.021 0.17,0 -3.652,3.653 c 0.074,0.257 0.184,0.555 0.32,0.839 0.148,-0.148 4.47,-4.471 4.47,-4.471 l 0.976,-0.021 0.169,0 c 0,0 -5.096,5.095 -5.185,5.187 l 0.269,0.308 c 0,0 0.218,0.191 0.309,0.272 0.092,-0.091 5.747,-5.746 5.747,-5.746 l 0.976,-0.021 0.168,0 c 0,0 -6.038,6.038 -6.193,6.193 0.285,0.137 0.584,0.248 0.896,0.306 l 6.435,-6.478 0.977,-0.021 0.168,0 z m -3.773,6.063 c -0.708,0.71 -1.063,1.64 -1.063,2.572 0,0.931 0.355,1.862 1.063,2.571 1.416,1.416 3.721,1.416 5.139,0.002 l 0.234,-0.232 0.335,0.231 C -5.125,6.288 -4.36,6.617 -3.547,6.71 -3.85,6.406 -6.039,4.218 -6.039,4.218 l -0.02,-0.973 0,-0.171 3.654,3.653 C -2.148,6.651 -1.851,6.541 -1.568,6.405 -1.715,6.259 -6.039,1.935 -6.039,1.935 l -0.02,-0.974 0,-0.17 c 0,0 5.096,5.095 5.186,5.185 l 0.308,-0.269 c 0,0 0.191,-0.217 0.272,-0.309 -0.092,-0.092 -5.746,-5.746 -5.746,-5.746 l -0.02,-0.976 0,-0.169 c 0,0 6.038,6.037 6.193,6.193 C 0.271,4.414 0.381,4.115 0.439,3.805 l -6.478,-6.437 -0.02,-0.974 0,-0.171 c 0,0 6.173,6.173 6.502,6.503 C 0.351,1.921 0.026,1.161 -0.55,0.58 -0.566,0.564 -5.49,-4.361 -5.99,-4.86 c -0.098,0.097 -5.424,5.424 -5.424,5.424 M 0,0 c 1.433,1.414 3.732,1.408 5.141,-0.001 0.708,-0.709 1.063,-1.64 1.063,-2.572 0,-0.93 -0.353,-1.86 -1.061,-2.568 L 4.912,-5.373 4.91,-5.38 5.141,-5.71 c 0.581,-0.58 0.909,-1.344 1.003,-2.158 -0.304,0.304 -2.49,2.492 -2.49,2.492 l -0.976,0.02 -0.17,0 3.654,-3.653 C 6.086,-9.267 5.975,-9.563 5.839,-9.847 5.692,-9.699 1.37,-5.376 1.37,-5.376 l -0.975,0.02 -0.171,0 c 0,0 5.095,-5.095 5.187,-5.186 l -0.27,-0.309 -0.309,-0.271 c -0.091,0.091 -5.746,5.746 -5.746,5.746 l -0.974,0.02 -0.171,0 c 0,0 6.038,-6.038 6.192,-6.192 -0.284,-0.137 -0.583,-0.249 -0.895,-0.305 l -6.435,6.477 -0.976,0.02 -0.169,0 c 0,0 6.173,-6.172 6.501,-6.501 -0.811,0.093 -1.576,0.421 -2.16,1.006 0,0 -5.328,5.326 -5.425,5.424 C -5.329,-5.329 0,0 0,0" id="path12645" style="fill:#ffffff;fill-opacity:1;fill-rule:nonzero;stroke:none" inkscape:connector-curvature="0"/>
          </g>
        </g>
      </g>
    </g>
  </g>
</svg>