<?xml version="1.0" encoding="UTF-8"?>
<svg width="227.4" height="90.71" version="1.1" viewBox="0 0 227.4 90.71" xml:space="preserve" xmlns="http://www.w3.org/2000/svg"><defs><clipPath id="clipPath18"><path d="m0 90.71h226.8v-90.71h-226.8z"/></clipPath></defs><g transform="matrix(1.333 0 0 -1.333 -15.12 105.8)"><g clip-path="url(#clipPath18)"><path d="m57.26 79.37h-1.134v-68.03h1.134zm-11.97-53.22c0.041 0.101 0.064 0.212 0.064 0.328 0 0.473-0.383 0.858-0.856 0.858h-0.866c-0.059 0-0.114 0.014-0.163 0.04-0.048 0.025-0.092 0.063-0.125 0.111l-0.434 0.641c0.033-0.048 0.076-0.086 0.125-0.111 0.048-0.026 0.104-0.041 0.163-0.04l1.141-1e-3c0.059 0 0.115-0.014 0.163-0.04 0.049-0.025 0.092-0.063 0.125-0.111l-0.524 0.768c-0.033 0.048-0.077 0.085-0.126 0.111-0.048 0.025-0.104 0.04-0.162 0.04l-1.132-1e-3c-0.058 0-0.114 0.015-0.162 0.04-0.049 0.026-0.093 0.063-0.126 0.112l-0.492 0.724c0.033-0.049 0.077-0.086 0.125-0.111 0.049-0.026 0.104-0.041 0.163-0.04h1.136c0.059 1e-3 0.115-0.014 0.163-0.04 0.049-0.025 0.092-0.062 0.125-0.111l-0.524 0.768c-0.033 0.048-0.077 0.086-0.126 0.111-0.048 0.026-0.104 0.04-0.162 0.04h-0.903c-0.059 0-0.114 0.015-0.163 0.041-0.048 0.025-0.092 0.062-0.125 0.111l-0.607 0.891c1.227 0.146 2.217 0.811 2.414 1.727 0.256 1.189-0.926 2.341-2.636 2.592-0.288 0.042-0.508 0.289-0.508 0.588 0 0.255 0.16 0.472 0.385 0.557-0.182 0.078-0.386 0.122-0.602 0.122-0.756 0-1.37-0.542-1.37-1.211 0-0.12 0.021-0.237 0.058-0.347-0.848-0.366-1.62-1.015-2.211-1.716 0.632 0.168 1.296 0.258 1.981 0.258-3e-3 0.032-5e-3 0.064-5e-3 0.097 0 0.513 0.415 0.928 0.928 0.928h0.013c-0.35-0.154-0.52-0.49-0.52-0.712 0-0.265 0.215-0.479 0.479-0.479 0.103 0 0.199 0.032 0.277 0.087-0.018 0.061-0.028 0.124-0.028 0.191 0 0.367 0.297 0.664 0.665 0.664 0.032 0 0.065-2e-3 0.096-7e-3 -0.253-0.118-0.429-0.376-0.429-0.674 0-0.411 0.333-0.744 0.744-0.744 0.044 0 0.086 3e-3 0.128 0.011-0.012 0.043-0.018 0.088-0.018 0.135 0 0.295 0.239 0.534 0.533 0.534 0.295 0 0.534-0.239 0.534-0.534 0-0.641-0.712-0.7-1.231-0.551-1.478 0.426-2.862 0.617-4.201 0.43-1.718-0.241-4.532-1.403-7.519-1.306-0.668 0.021-1.397 0.132-2.131 0.333 0.09-0.098 0.148-0.167 0.186-0.225 0.291-0.453 0.391-0.928 0.134-1.522 7e-3 0.666-0.543 1.214-1.004 1.55-0.186 0.135-0.261 0.264-0.23 0.437l0.136 0.768c-0.01-0.057-5e-3 -0.114 0.012-0.165 0.017-0.053 0.046-0.102 0.088-0.143l0.287-0.281c0.109 0.778-0.067 1.502-0.53 2.173 0.205 0.536 0.233 1.127 0.096 1.682-0.054-0.42-0.26-0.6-0.455-0.722-0.364-0.227-0.424-0.611-0.236-0.868-0.306 0.157-0.73 0.726-0.485 1.058 0.264 0.359 0.987 0.19 1.076 0.806-0.469 0.149-0.952 0.044-1.099 4e-3 -0.278 0.319-0.647 0.477-1.106 0.474-0.363 0.33-0.829 0.466-1.399 0.409-0.569 0.057-1.035-0.079-1.398-0.409-0.459 3e-3 -0.828-0.155-1.106-0.474-0.148 0.04-0.63 0.145-1.1-4e-3 0.089-0.616 0.812-0.447 1.076-0.806 0.245-0.332-0.178-0.901-0.485-1.058 0.189 0.257 0.128 0.641-0.236 0.868-0.194 0.122-0.401 0.302-0.455 0.722-0.137-0.555-0.108-1.146 0.096-1.682-0.463-0.671-0.639-1.395-0.53-2.173l0.288 0.281c0.042 0.041 0.071 0.09 0.088 0.143 0.017 0.051 0.021 0.108 0.011 0.165l0.136-0.768c0.031-0.173-0.043-0.302-0.229-0.437-0.462-0.336-1.012-0.884-1.005-1.55-0.256 0.594-0.152 1.089 0.135 1.522-0.876 0.473-1.543 1.25-1.666 1.392-0.265 0.308-0.23 0.701 0.01 1.045 0.463 0.663 0.573 1.368-8e-3 1.851 4e-3 0.035 6e-3 0.071 6e-3 0.107 0 0.439-0.312 0.805-0.727 0.888 0.077-0.12 0.122-0.263 0.122-0.416 0-0.175-0.058-0.336-0.157-0.465 0.082-0.108 0.131-0.243 0.131-0.389 0-0.196-0.088-0.371-0.227-0.488 0.014 0.067 0.021 0.138 0.021 0.209 0 0.452-0.28 0.83-0.659 0.934-0.061 0.328-0.349 0.577-0.695 0.577-0.201 0-0.381-0.083-0.51-0.217 0.268-0.02 0.484-0.231 0.513-0.497-0.128-0.096-0.231-0.228-0.298-0.384h0.017c0.463 0 0.838-0.375 0.838-0.838 0-0.052-5e-3 -0.104-0.014-0.154-0.035 0.191-0.121 0.366-0.26 0.502-0.26 0.253-0.638 0.306-0.984 0.174-0.13 0.163-0.33 0.268-0.554 0.268-0.254 0-0.476-0.133-0.601-0.333 0.256-0.011 0.481-0.14 0.622-0.335-0.364-0.466-0.368-1.11 4e-3 -1.473 0.252-0.246 0.613-0.303 0.95-0.187 0.022 8e-3 0.046 0.012 0.071 0.012 0.124 0 0.224-0.1 0.224-0.224 0-0.123-0.1-0.223-0.224-0.223-0.054 0-0.104 0.019-0.142 0.051-0.085 0.071-0.195 0.113-0.314 0.113-0.27 0-0.49-0.219-0.49-0.49 0-0.02 1e-3 -0.041 4e-3 -0.06-0.046-0.015-0.095-0.023-0.146-0.023-0.132 0-0.252 0.054-0.34 0.14-0.014-0.053-0.021-0.109-0.021-0.167 0-0.345 0.266-0.628 0.605-0.654 0.152-0.378 0.523-0.644 0.955-0.644 0.222 0 0.427 0.07 0.595 0.188 0.074 0.052 0.162 0.082 0.258 0.082 0.249 0 0.451-0.202 0.451-0.451 0-0.215-0.15-0.394-0.351-0.439l-0.351-0.078c-0.057-0.013-0.115-0.01-0.168 5e-3 -0.053 0.014-0.103 0.041-0.145 0.082l0.803-0.763c0.043-0.04 0.093-0.068 0.146-0.082 0.053-0.015 0.11-0.018 0.168-5e-3l0.657 0.146c0.057 0.013 0.115 0.01 0.167-5e-3 0.053-0.014 0.104-0.041 0.146-0.082l0.551-0.524c-0.043 0.041-0.093 0.068-0.146 0.082-0.053 0.015-0.11 0.018-0.167 5e-3l-0.657-0.145c-0.057-0.013-0.115-0.01-0.167 5e-3 -0.053 0.014-0.104 0.041-0.146 0.081l0.736-0.697c0.042-0.041 0.093-0.068 0.145-0.082 0.053-0.015 0.111-0.018 0.168-5e-3l0.658 0.144c0.058 0.013 0.115 0.01 0.168-5e-3 0.053-0.014 0.103-0.042 0.146-0.082l0.551-0.524c-0.043 0.04-0.093 0.068-0.146 0.082-0.053 0.015-0.11 0.018-0.168 5e-3l-0.656-0.145c-0.058-0.013-0.115-0.01-0.168 5e-3 -0.053 0.014-0.103 0.041-0.146 0.082l0.736-0.698c0.043-0.041 0.093-0.068 0.146-0.082 0.053-0.015 0.11-0.018 0.168-5e-3l0.795 0.174c-0.772-0.436-1.594-0.93-2.465-1.481-0.515-0.325-1.078-0.386-1.725-0.138-0.347 0.133-0.725 0.155-0.963 0.114-0.31-0.053-0.573-0.241-0.726-0.502 0.12 0.049 0.251 0.075 0.389 0.075 0.289 0 0.55-0.117 0.74-0.305-0.301 0.126-0.675 0.139-1.038 7e-3 -0.65-0.237-1.029-0.85-0.881-1.398-0.242-0.094-0.413-0.328-0.413-0.603 0-0.181 0.074-0.344 0.194-0.462 0.064 0.288 0.316 0.505 0.621 0.516 0.127-0.084 0.275-0.143 0.434-0.175 0.048 0.083 0.109 0.158 0.179 0.221-7e-3 0.052-0.011 0.105-0.011 0.159 0 0.593 0.48 1.074 1.073 1.074 0.049 0 0.098-3e-3 0.145-0.01-0.471-0.113-0.822-0.537-0.822-1.044 0-0.064 6e-3 -0.127 0.017-0.188-0.254-0.097-0.433-0.343-0.433-0.631 0-0.165 0.059-0.316 0.158-0.434 0.182 0.356 0.537 0.608 0.954 0.648 0.157-0.046 0.323-0.071 0.495-0.071 0.107 0 0.212 0.01 0.314 0.028-0.092 0.135-0.146 0.297-0.146 0.472 0 0.461 0.374 0.835 0.835 0.835 0.04 0 0.079-3e-3 0.118-9e-3 -0.441-0.187-0.711-0.57-0.618-0.918 0.066-0.248 0.299-0.419 0.6-0.475-4e-3 -0.186-0.055-0.36-0.142-0.511 0.387 0.028 0.718 0.262 0.883 0.592 0.456 0.183 0.737 0.574 0.643 0.929-0.034 0.127-0.112 0.234-0.22 0.316-1e-3 0.012-2e-3 0.024-2e-3 0.036 0 0.244 0.199 0.443 0.443 0.443 0.245 0 0.443-0.199 0.443-0.443 0-0.116-0.044-0.221-0.117-0.3h0.927c0.058 0 0.114 0.015 0.162 0.041 0.049 0.025 0.092 0.063 0.125 0.112l0.595 0.882c0.022 0.033 0.052 0.058 0.085 0.076s0.071 0.028 0.111 0.028h0.728c-0.04 0-0.078-0.01-0.111-0.028s-0.063-0.043-0.085-0.076l-0.597-0.882c-0.033-0.049-0.076-0.087-0.125-0.112-0.048-0.026-0.103-0.041-0.162-0.041h1.108c0.059 0 0.114 0.015 0.162 0.041 0.049 0.025 0.093 0.063 0.125 0.112l0.668 0.985c-0.461 0.252-0.65 0.693-0.65 1.299 0 0.377 0.212 0.807 0.244 1.084l0.013 0.11c7e-3 0.059-1e-3 0.116-0.021 0.167-0.016 0.041-0.048 0.101-0.083 0.142l0.57-0.584c0.045-0.038 0.077-0.086 0.096-0.137 0.021-0.051 0.029-0.108 0.022-0.166l-0.017-0.134c-0.027-0.232-0.319-0.732 0.223-1.19 0.027-0.023 0.094-0.07 0.158-0.111l0.385-0.242v1.421h0.539v-1.581c1e-3 -0.059 0.018-0.114 0.045-0.161 0.027-0.048 0.065-0.091 0.115-0.122l0.527-0.335c0.05-0.031 0.105-0.049 0.159-0.053 0.055-4e-3 0.112 4e-3 0.165 0.028l0.971 0.421c-0.054-0.023-0.111-0.032-0.165-0.027-0.055 4e-3 -0.11 0.021-0.159 0.053l-1.115 0.709c0.542 0.458 0.249 0.958 0.222 1.19l-0.016 0.134c-7e-3 0.058 1e-3 0.115 0.021 0.166s0.052 0.099 0.096 0.137l0.57 0.584c-0.035-0.041-0.066-0.101-0.082-0.142-0.02-0.051-0.028-0.108-0.021-0.167l0.012-0.11c0.046-0.395 0.446-1.111 0.113-1.51l1.019-0.647c0.05-0.031 0.105-0.048 0.159-0.052 0.055-5e-3 0.112 3e-3 0.166 0.027l1.015 0.441c-0.054-0.023-0.11-0.031-0.164-0.027-0.055 4e-3 -0.11 0.022-0.16 0.053l-1.102 0.701c0.24 0.492 0.038 1.273-0.195 1.725l-0.035 0.067c-0.026 0.053-0.038 0.109-0.036 0.164 0 0.055 0.014 0.11 0.043 0.162l0.378 0.682c-0.028-0.051-0.042-0.107-0.042-0.161-2e-3 -0.055 0.01-0.111 0.036-0.163l0.139-0.271c0.073-0.133 0.114-0.214 0.178-0.371 0.62 0.559 0.758 1.098 0.363 1.558l-0.118 0.138c-0.038 0.044-0.063 0.096-0.075 0.15-0.013 0.053-0.013 0.11 3e-3 0.167l0.202 0.753c-0.015-0.056-0.015-0.113-3e-3 -0.166s0.037-0.105 0.076-0.149l0.388-0.453c0.754-0.852 0.298-1.95-0.602-2.787 0.05-0.161 0.093-0.462 0.057-0.625l1.195-0.758c0.05-0.032 0.105-0.049 0.16-0.053 0.054-5e-3 0.111 4e-3 0.165 0.027l0.864 0.376c-0.049-0.021-0.104-0.033-0.16-0.033-0.223 0-0.403 0.18-0.403 0.402 0 0.18 0.117 0.335 0.281 0.384 3.299 1.004 6.336 3.594 8.33 3.588 0.969-3e-3 1.755-0.59 1.755-1.317 0-0.117-0.021-0.231-0.059-0.34-0.425-1.194 0.194-2.334 1.829-2.773 0.26-0.071 0.452-0.309 0.452-0.591 0-0.055-8e-3 -0.109-0.021-0.159 0.037-4e-3 0.075-5e-3 0.114-5e-3 0.45 0 0.848 0.224 1.089 0.566 0.281 2e-3 0.587 0.019 0.901 0.052 0.038-0.076 0.068-0.163 0.086-0.257 0.067-0.343-0.052-0.654-0.263-0.722-0.375-0.122-0.835 0.024-1.19 0.021-0.672-7e-3 -1.215-0.553-1.215-1.226 0-0.053 3e-3 -0.105 0.01-0.156-0.211-0.132-0.351-0.366-0.351-0.632 0-0.133 0.035-0.258 0.096-0.366 0.207 0.242 0.476 0.428 0.783 0.536 0.026 0.59 0.512 1.06 1.108 1.06 0.091 0 0.181-0.011 0.265-0.032-0.604-0.076-1.072-0.592-1.072-1.217 0-0.045 3e-3 -0.09 8e-3 -0.135-0.075-0.09-0.12-0.207-0.12-0.333 0-0.161 0.072-0.305 0.185-0.401 0.114 0.249 0.389 0.484 0.745 0.604 0.239 0.08 0.474 0.096 0.67 0.056-0.031 0.094-0.047 0.194-0.047 0.298 0 0.533 0.432 0.965 0.965 0.965 0.049 0 0.098-4e-3 0.145-0.011-0.372-0.05-0.658-0.369-0.658-0.754 0-0.256 0.126-0.482 0.319-0.62 0-0.014-1e-3 -0.028-1e-3 -0.042 0-0.209 0.096-0.396 0.247-0.519 0.067 0.35 0.374 0.614 0.744 0.614 0.316 0 0.577 0.04 0.772 0.104 0.33 0.108 0.571 0.413 0.571 0.778 0 0.253-0.115 0.479-0.296 0.628 0.089 0.41 0.073 1.083-0.066 1.643 0.028 4e-3 0.057 6e-3 0.087 6e-3 0.23 0 0.433-0.118 0.551-0.298m-25.94 2.827 0.138 0.271c0.027 0.052 0.038 0.108 0.037 0.163-1e-3 0.054-0.015 0.11-0.043 0.161l0.379-0.682c0.028-0.052 0.042-0.107 0.043-0.162 2e-3 -0.055-0.01-0.111-0.037-0.164l-0.034-0.067c-0.233-0.452-0.45-1.299-0.209-1.79-0.562 0.209-0.747 0.701-0.687 1.11-1.057 1.003-1.324 2.019-0.569 2.871l0.388 0.453c0.039 0.044 0.064 0.096 0.075 0.149 0.013 0.053 0.013 0.11-2e-3 0.166l0.202-0.753c0.015-0.057 0.016-0.114 3e-3 -0.167-0.012-0.054-0.037-0.106-0.075-0.15l-0.118-0.138c-0.395-0.46-0.289-1.083 0.33-1.642 0.064 0.157 0.106 0.238 0.179 0.371m1.408 5.442h-0.249c-0.27 0-0.509 0.362-0.509 0.688 0.148-0.166 0.304-0.237 0.516-0.237h1.142c0.102 0 0.204-0.079 0.248-0.21 0.032-0.097 0.014-0.241-4e-3 -0.381-0.055 0.104-0.124 0.14-0.213 0.14h-0.26c0.062-0.075 0.099-0.171 0.099-0.277 0-0.24-0.195-0.435-0.435-0.435s-0.435 0.195-0.435 0.435c0 0.106 0.037 0.202 0.1 0.277m0.287 2.062 0.474-0.603c0.106-0.128 0.139-0.213 0.264-0.231h-0.398c-0.199 0-0.336 0.081-0.452 0.215l-0.455 0.594c-0.075 0.094-0.134 0.16-0.232 0.204h0.45c0.135 0 0.255-0.059 0.349-0.179m1.319 0.147 0.582-0.818c0.092-0.134 0.179-0.209 0.304-0.26h-0.533c-0.205 0-0.328 0.094-0.418 0.242l-0.458 0.702c-0.175 0.263-0.244 0.329-0.445 0.4h0.495c0.195 0 0.377-0.127 0.473-0.266m2.081-0.981h-0.398c-0.199 0-0.336 0.081-0.452 0.215l-0.455 0.594c-0.075 0.094-0.134 0.16-0.232 0.204h0.45c0.135 0 0.255-0.059 0.349-0.179l0.474-0.603c0.106-0.128 0.139-0.213 0.264-0.231m0.151-0.54c0-0.326-0.238-0.688-0.509-0.688h-0.248c0.062-0.075 0.1-0.171 0.1-0.277 0-0.24-0.195-0.435-0.435-0.435-0.241 0-0.436 0.195-0.436 0.435 0 0.106 0.038 0.202 0.1 0.277h-0.26c-0.089 0-0.158-0.036-0.213-0.14-0.018 0.14-0.036 0.284-4e-3 0.381 0.044 0.131 0.146 0.21 0.248 0.21h1.142c0.211 0 0.368 0.071 0.515 0.237m-0.351-2.471c-0.079-0.022-0.122-0.068-0.131-0.151-0.047-0.446-0.228-0.626-0.517-0.727-4e-3 -0.45-0.066-0.79-0.188-1.212 0.343-0.717 0.08-1.218-0.198-1.325-0.265-0.103-0.607 0.035-0.91 0.035s-0.65-0.138-0.915-0.035c-0.279 0.107-0.541 0.608-0.199 1.325-0.121 0.422-0.184 0.762-0.187 1.212-0.289 0.101-0.471 0.281-0.518 0.727-9e-3 0.083-0.052 0.129-0.13 0.151-1.14 0.312-1.248 1.728-0.671 2.129-0.051-0.634-0.106-1.529 1.19-1.648-0.021-0.744 0.301-0.943 0.632-0.943 0.271 0 0.426 0.087 0.494 0.123 0.241 0.128 0.075 0.323 0.013 0.381-0.166 0.155-0.25 0.375-0.21 0.594 7e-3 0.04 0.022 0.06 0.059 0.06h0.878c0.037 0 0.053-0.02 0.06-0.06 0.039-0.219-0.045-0.439-0.21-0.594-0.062-0.058-0.228-0.253 0.013-0.381 0.067-0.036 0.223-0.123 0.494-0.123 0.331 0 0.653 0.199 0.632 0.943 1.296 0.119 1.241 1.014 1.19 1.648 0.577-0.401 0.468-1.817-0.671-2.129m-1.148-2.73c0.034 0.379-0.397 0.514-0.799 0.514s-0.832-0.135-0.799-0.514c0.041-0.462 0.473-0.242 0.799-0.244 0.326 2e-3 0.758-0.218 0.799 0.244m-0.133 0.899c0.062 0.334 0.088 0.658 0.076 0.97l-0.299-0.35c-0.059 0.14-0.098 0.225-0.138 0.294-0.033 0.057-0.061 0.096-0.1 0.103-0.02-0.01-0.05-0.026-0.083-0.034-0.038-9e-3 -0.09-6e-3 -0.122-6e-3 -0.031 0-0.083-3e-3 -0.122 6e-3 -0.032 8e-3 -0.062 0.024-0.082 0.034-0.04-7e-3 -0.067-0.046-0.1-0.103-0.04-0.069-0.079-0.154-0.138-0.294l-0.3 0.35c-0.011-0.312 0.014-0.636 0.077-0.97 0.221 0.049 0.449 0.066 0.665 0.066s0.444-0.017 0.666-0.066m5.44 9.331c0.048 0 0.095-3e-3 0.141-8e-3 -0.468-0.135-0.846-0.484-1.021-0.934-0.291-0.096-0.501-0.371-0.501-0.694 0-0.151 0.046-0.291 0.124-0.407 0.253 0.282 0.585 0.493 0.962 0.595 0.108 0.542 0.559 0.96 1.117 1.019-0.487-0.204-0.829-0.686-0.829-1.247 0-0.199 0.043-0.387 0.12-0.557 0.086 0.309 0.369 0.536 0.705 0.536 0.085 0 0.166-0.014 0.241-0.041 0.104-0.038 0.217-0.058 0.334-0.058 0.541 0 0.979 0.439 0.979 0.981 0 0.108-0.017 0.212-0.049 0.31 0.257-0.075 0.446-0.313 0.446-0.595 0-0.129-0.04-0.248-0.107-0.348 0.072-0.013 0.146-0.019 0.222-0.019 0.637 0 1.163 0.479 1.236 1.096 0.32 0.174 0.601 0.408 0.843 0.7l0.17-0.829c0.012-0.058 9e-3 -0.115-7e-3 -0.168-0.015-0.052-0.043-0.103-0.084-0.144l0.703 0.722c0.041 0.042 0.069 0.092 0.083 0.145 0.016 0.053 0.019 0.11 7e-3 0.167l-0.207 1.012c-0.012 0.057-9e-3 0.115 7e-3 0.167 0.015 0.053 0.043 0.103 0.084 0.145l0.553 0.564c-0.041-0.042-0.069-0.092-0.084-0.145s-0.018-0.11-6e-3 -0.168l0.207-1.013c0.012-0.057 9e-3 -0.114-6e-3 -0.167-0.015-0.052-0.042-0.101-0.082-0.143l0.627 0.652c0.04 0.042 0.068 0.092 0.083 0.144 0.016 0.053 0.019 0.111 7e-3 0.168l-0.207 1.01c-0.012 0.057-9e-3 0.115 7e-3 0.167 0.015 0.053 0.043 0.103 0.084 0.145l0.553 0.564c-0.041-0.042-0.069-0.092-0.084-0.145s-0.018-0.11-6e-3 -0.167l0.208-1.013c0.012-0.057 8e-3 -0.115-7e-3 -0.167s-0.042-0.101-0.082-0.143l0.627 0.651c0.041 0.042 0.068 0.092 0.083 0.145 0.016 0.053 0.019 0.11 7e-3 0.168l-0.101 0.494c-0.106 0.559 0.471 1.202 0.929 1.267 0.055 0.106 0.085 0.221 0.085 0.34 0 0.567-0.675 1.027-1.509 1.027-0.407 0-0.777-0.11-1.049-0.289 0.109-0.323 0.132-0.651-0.937-0.803-0.848-0.12-1.594-0.285-2.161-0.766-0.874-0.741-0.803-1.732-1.3-2.107 0.221-0.054 0.502-0.054 0.803 0.011 0.19 0.041 0.366 0.104 0.521 0.181-0.093-0.178-0.306-0.347-0.586-0.467-0.092-0.35-0.403-0.684-0.823-0.84-0.265-0.098-0.528-0.108-0.746-0.045l-1.023 0.296c-0.126 0.036-0.257 0.055-0.394 0.055-0.754 0-1.376-0.581-1.468-1.332-0.356-0.05-0.629-0.356-0.629-0.725 0-0.136 0.037-0.262 0.101-0.371 0.245 0.249 0.556 0.434 0.904 0.528 0.146 0.515 0.62 0.893 1.182 0.893m0.073-5.77c-0.018 0.09-0.016 0.181 3e-3 0.273 0.038 0.176 0.194 0.308 0.382 0.308 0.216 0 0.39-0.175 0.39-0.391 0-0.103-0.04-0.197-0.105-0.267 0.073-7e-3 0.148-0.011 0.226-0.011 0.201 0 0.392 0.025 0.56 0.07 0.275 0.074 0.477 0.325 0.477 0.623 0 0.356-0.289 0.644-0.645 0.644-0.019 0-0.039 0-0.058-2e-3 0.09 0.038 0.189 0.059 0.293 0.059 0.413 0 0.749-0.335 0.749-0.749 0-0.021-1e-3 -0.043-3e-3 -0.063 1.116 0.024 2.374 1.042 2.649 1.43-0.35-0.08-0.729-0.124-1.125-0.124-0.449 0-0.878 0.055-1.266 0.158-0.549 0.145-1.089 0.226-1.504 0.226-1.369 0-2.479-0.893-2.479-1.995 0-0.91 0.752-1.705 1.794-1.918 2.371-0.484 5.16 0.924 7.516 1.412 0.589 0.576 1.27 1.057 2.019 1.421-0.022 0.086-0.034 0.176-0.034 0.268v6e-3c-3.126-0.514-5.939-2.118-8.479-2.105-0.712 3e-3 -1.27 0.277-1.36 0.727m16.81 6.949c0.041 0.101 0.064 0.212 0.064 0.328 0 0.473-0.383 0.858-0.856 0.858h-0.866c-0.059-1e-3 -0.114 0.014-0.163 0.04-0.048 0.025-0.092 0.063-0.125 0.111l-0.434 0.641c0.033-0.048 0.076-0.086 0.125-0.111 0.048-0.026 0.104-0.041 0.163-0.04l1.141-1e-3c0.059 0 0.115-0.014 0.163-0.04 0.049-0.025 0.092-0.063 0.125-0.111l-0.524 0.767c-0.033 0.049-0.077 0.086-0.126 0.111-0.048 0.026-0.104 0.041-0.162 0.041l-1.132-1e-3c-0.058 0-0.114 0.014-0.162 0.04-0.049 0.025-0.093 0.063-0.126 0.111l-0.492 0.725c0.033-0.049 0.077-0.086 0.125-0.111 0.049-0.026 0.104-0.041 0.163-0.041l1.136 1e-3c0.059 0 0.115-0.014 0.163-0.04 0.049-0.025 0.092-0.062 0.125-0.111l-0.524 0.767c-0.033 0.049-0.077 0.086-0.126 0.112-0.048 0.026-0.104 0.04-0.162 0.04h-0.903c-0.059 0-0.114 0.015-0.163 0.04-0.048 0.026-0.092 0.063-0.125 0.112l-0.607 0.891c1.227 0.146 2.217 0.811 2.414 1.727 0.256 1.188-0.926 2.341-2.636 2.592-0.288 0.042-0.508 0.289-0.508 0.588 0 0.254 0.16 0.472 0.385 0.556-0.182 0.079-0.386 0.123-0.602 0.123-0.756 0-1.37-0.542-1.37-1.211 0-0.12 0.021-0.237 0.058-0.347-0.848-0.366-1.62-1.015-2.211-1.716 0.632 0.168 1.296 0.258 1.981 0.258-3e-3 0.032-5e-3 0.064-5e-3 0.097 0 0.513 0.415 0.928 0.928 0.928h0.013c-0.35-0.154-0.52-0.49-0.52-0.712 0-0.265 0.215-0.48 0.479-0.48 0.103 0 0.199 0.033 0.277 0.088-0.018 0.06-0.028 0.124-0.028 0.191 0 0.367 0.297 0.664 0.665 0.664 0.032 0 0.065-2e-3 0.096-7e-3 -0.253-0.118-0.429-0.376-0.429-0.674 0-0.411 0.333-0.744 0.744-0.744 0.044 0 0.086 3e-3 0.128 0.01-0.012 0.044-0.018 0.089-0.018 0.136 0 0.295 0.239 0.534 0.533 0.534 0.295 0 0.534-0.239 0.534-0.534 0-0.641-0.712-0.7-1.231-0.551-1.478 0.426-2.862 0.617-4.201 0.43-1.718-0.242-4.532-1.403-7.519-1.306-0.668 0.021-1.397 0.132-2.131 0.333 0.09-0.099 0.148-0.167 0.186-0.225 0.291-0.453 0.391-0.928 0.134-1.522 7e-3 0.666-0.543 1.214-1.004 1.55-0.186 0.135-0.261 0.264-0.23 0.437l0.136 0.768c-0.01-0.057-5e-3 -0.114 0.012-0.165 0.017-0.053 0.046-0.102 0.088-0.143l0.287-0.281c0.109 0.778-0.067 1.502-0.53 2.173 0.205 0.536 0.233 1.127 0.096 1.682-0.054-0.42-0.26-0.6-0.455-0.722-0.364-0.227-0.424-0.611-0.236-0.868-0.306 0.156-0.73 0.726-0.485 1.058 0.264 0.359 0.987 0.19 1.076 0.806-0.469 0.149-0.952 0.044-1.099 4e-3 -0.278 0.319-0.647 0.477-1.106 0.474-0.363 0.329-0.829 0.466-1.399 0.409-0.569 0.057-1.035-0.08-1.398-0.409-0.459 3e-3 -0.828-0.155-1.106-0.474-0.148 0.04-0.63 0.145-1.1-4e-3 0.089-0.616 0.812-0.447 1.076-0.806 0.245-0.332-0.178-0.902-0.485-1.058 0.189 0.257 0.128 0.641-0.236 0.868-0.194 0.122-0.401 0.302-0.455 0.722-0.137-0.555-0.108-1.146 0.096-1.682-0.463-0.671-0.639-1.395-0.53-2.173l0.288 0.281c0.042 0.041 0.071 0.09 0.088 0.143 0.017 0.051 0.021 0.108 0.011 0.165l0.136-0.768c0.031-0.173-0.043-0.302-0.229-0.437-0.462-0.336-1.012-0.884-1.005-1.55-0.256 0.594-0.152 1.089 0.135 1.522-0.876 0.473-1.543 1.25-1.666 1.392-0.265 0.308-0.23 0.701 0.01 1.045 0.463 0.662 0.573 1.368-8e-3 1.851 4e-3 0.035 6e-3 0.071 6e-3 0.107 0 0.439-0.312 0.805-0.727 0.888 0.077-0.12 0.122-0.263 0.122-0.416 0-0.175-0.058-0.336-0.157-0.466 0.082-0.107 0.131-0.242 0.131-0.388 0-0.196-0.088-0.371-0.227-0.488 0.014 0.067 0.021 0.137 0.021 0.209 0 0.452-0.28 0.83-0.659 0.934-0.061 0.328-0.349 0.577-0.695 0.577-0.201 0-0.381-0.083-0.51-0.217 0.268-0.02 0.484-0.231 0.513-0.497-0.128-0.096-0.231-0.228-0.298-0.384h0.017c0.463 0 0.838-0.375 0.838-0.838 0-0.052-5e-3 -0.104-0.014-0.154-0.035 0.19-0.121 0.366-0.26 0.501-0.26 0.254-0.638 0.307-0.984 0.175-0.13 0.163-0.33 0.268-0.554 0.268-0.254 0-0.476-0.133-0.601-0.333 0.256-0.011 0.481-0.14 0.622-0.335-0.364-0.466-0.368-1.11 4e-3 -1.473 0.252-0.246 0.613-0.303 0.95-0.187 0.022 7e-3 0.046 0.011 0.071 0.011 0.124 0 0.224-0.1 0.224-0.223s-0.1-0.223-0.224-0.223c-0.054 0-0.104 0.019-0.142 0.051-0.085 0.071-0.195 0.113-0.314 0.113-0.27 0-0.49-0.219-0.49-0.49 0-0.021 1e-3 -0.041 4e-3 -0.06-0.046-0.015-0.095-0.023-0.146-0.023-0.132 0-0.252 0.054-0.34 0.14-0.014-0.053-0.021-0.109-0.021-0.167 0-0.345 0.266-0.628 0.605-0.654 0.152-0.378 0.523-0.644 0.955-0.644 0.222 0 0.427 0.07 0.595 0.188 0.074 0.051 0.162 0.082 0.258 0.082 0.249 0 0.451-0.202 0.451-0.451 0-0.215-0.15-0.394-0.351-0.44l-0.351-0.077c-0.057-0.013-0.115-0.01-0.168 5e-3 -0.053 0.014-0.103 0.041-0.145 0.081l0.803-0.762c0.043-0.04 0.093-0.068 0.146-0.082 0.053-0.015 0.11-0.018 0.168-5e-3l0.657 0.146c0.057 0.013 0.115 0.01 0.167-5e-3 0.053-0.014 0.104-0.042 0.146-0.082l0.551-0.524c-0.043 0.04-0.093 0.068-0.146 0.082-0.053 0.015-0.11 0.018-0.167 5e-3l-0.657-0.145c-0.057-0.013-0.115-0.01-0.167 5e-3 -0.053 0.014-0.104 0.041-0.146 0.081l0.736-0.697c0.042-0.041 0.093-0.068 0.145-0.083 0.053-0.015 0.111-0.017 0.168-4e-3l0.658 0.144c0.058 0.013 0.115 0.01 0.168-5e-3 0.053-0.014 0.103-0.042 0.146-0.082l0.551-0.524c-0.043 0.04-0.093 0.068-0.146 0.082-0.053 0.015-0.11 0.017-0.168 5e-3l-0.656-0.145c-0.058-0.013-0.115-0.01-0.168 5e-3 -0.053 0.014-0.103 0.041-0.146 0.081l0.736-0.697c0.043-0.041 0.093-0.068 0.146-0.082 0.053-0.015 0.11-0.018 0.168-5e-3l0.795 0.174c-0.772-0.436-1.594-0.93-2.465-1.481-0.515-0.325-1.078-0.386-1.725-0.138-0.347 0.133-0.725 0.154-0.963 0.114-0.31-0.053-0.573-0.241-0.726-0.502 0.12 0.048 0.251 0.075 0.389 0.075 0.289 0 0.55-0.117 0.74-0.305-0.301 0.126-0.675 0.139-1.038 6e-3 -0.65-0.236-1.029-0.849-0.881-1.398-0.242-0.093-0.413-0.328-0.413-0.602 0-0.181 0.074-0.345 0.194-0.462 0.064 0.288 0.316 0.505 0.621 0.516 0.127-0.084 0.275-0.143 0.434-0.175 0.048 0.083 0.109 0.158 0.179 0.221-7e-3 0.052-0.011 0.105-0.011 0.159 0 0.593 0.48 1.074 1.073 1.074 0.049 0 0.098-3e-3 0.145-0.01-0.471-0.113-0.822-0.537-0.822-1.044 0-0.064 6e-3 -0.127 0.017-0.188-0.254-0.098-0.433-0.343-0.433-0.631 0-0.165 0.059-0.316 0.158-0.434 0.182 0.356 0.537 0.608 0.954 0.648 0.157-0.046 0.323-0.071 0.495-0.071 0.107 0 0.212 0.01 0.314 0.028-0.092 0.135-0.146 0.297-0.146 0.472 0 0.461 0.374 0.834 0.835 0.834 0.04 0 0.079-3e-3 0.118-8e-3 -0.441-0.187-0.711-0.57-0.618-0.919 0.066-0.247 0.299-0.418 0.6-0.475-4e-3 -0.185-0.055-0.359-0.142-0.51 0.387 0.028 0.718 0.261 0.883 0.592 0.456 0.183 0.737 0.574 0.643 0.929-0.034 0.127-0.112 0.234-0.22 0.315-1e-3 0.012-2e-3 0.025-2e-3 0.037 0 0.244 0.199 0.443 0.443 0.443 0.245 0 0.443-0.199 0.443-0.443 0-0.116-0.044-0.221-0.117-0.3h0.927c0.058 0 0.114 0.015 0.162 0.041 0.049 0.025 0.092 0.063 0.125 0.112l0.595 0.882c0.022 0.033 0.052 0.058 0.085 0.076 0.033 0.017 0.071 0.028 0.111 0.028h0.728c-0.04 0-0.078-0.011-0.111-0.028-0.033-0.018-0.063-0.043-0.085-0.076l-0.597-0.883c-0.033-0.048-0.076-0.086-0.125-0.111-0.048-0.026-0.103-0.041-0.162-0.041h1.108c0.059 0 0.114 0.015 0.162 0.041 0.049 0.025 0.093 0.063 0.125 0.112l0.668 0.985c-0.461 0.252-0.65 0.693-0.65 1.299 0 0.377 0.212 0.807 0.244 1.084l0.013 0.11c7e-3 0.059-1e-3 0.115-0.021 0.166-0.016 0.042-0.048 0.102-0.083 0.143l0.57-0.584c0.045-0.038 0.077-0.086 0.096-0.137 0.021-0.051 0.029-0.108 0.022-0.167l-0.017-0.133c-0.027-0.232-0.319-0.732 0.223-1.19 0.027-0.023 0.094-0.071 0.158-0.111l0.385-0.242v1.421h0.539v-1.581c1e-3 -0.059 0.018-0.114 0.045-0.162 0.027-0.047 0.065-0.09 0.115-0.121l0.527-0.335c0.05-0.031 0.105-0.049 0.159-0.053 0.055-4e-3 0.112 4e-3 0.165 0.027l0.971 0.422c-0.054-0.024-0.111-0.032-0.165-0.027-0.055 4e-3 -0.11 0.021-0.159 0.052l-1.115 0.71c0.542 0.458 0.249 0.958 0.222 1.19l-0.016 0.133c-7e-3 0.059 1e-3 0.116 0.021 0.167s0.052 0.099 0.096 0.137l0.57 0.584c-0.035-0.041-0.066-0.101-0.082-0.143-0.02-0.051-0.028-0.107-0.021-0.166l0.012-0.11c0.046-0.395 0.446-1.111 0.113-1.511l1.019-0.646c0.05-0.031 0.105-0.049 0.159-0.053 0.055-4e-3 0.112 4e-3 0.166 0.028l1.015 0.441c-0.054-0.023-0.11-0.031-0.164-0.027-0.055 4e-3 -0.11 0.021-0.16 0.053l-1.102 0.701c0.24 0.491 0.038 1.273-0.195 1.725l-0.035 0.067c-0.026 0.052-0.038 0.109-0.036 0.164 0 0.055 0.014 0.11 0.043 0.161l0.378 0.682c-0.028-0.05-0.042-0.106-0.042-0.16-2e-3 -0.055 0.01-0.111 0.036-0.163l0.139-0.271c0.073-0.133 0.114-0.214 0.178-0.371 0.62 0.559 0.758 1.098 0.363 1.557l-0.118 0.139c-0.038 0.044-0.063 0.096-0.075 0.149-0.013 0.054-0.013 0.111 3e-3 0.168l0.202 0.753c-0.015-0.056-0.015-0.113-3e-3 -0.166s0.037-0.105 0.076-0.149l0.388-0.453c0.754-0.852 0.298-1.95-0.602-2.788 0.05-0.16 0.093-0.461 0.057-0.624l1.195-0.758c0.05-0.032 0.105-0.049 0.16-0.053 0.054-5e-3 0.111 4e-3 0.165 0.027l0.864 0.376c-0.049-0.021-0.104-0.033-0.16-0.033-0.223 0-0.403 0.18-0.403 0.402 0 0.18 0.117 0.335 0.281 0.384 3.299 1.004 6.336 3.594 8.33 3.588 0.969-4e-3 1.755-0.59 1.755-1.317 0-0.117-0.021-0.231-0.059-0.34-0.425-1.194 0.194-2.334 1.829-2.774 0.26-0.07 0.452-0.308 0.452-0.59 0-0.055-8e-3 -0.109-0.021-0.159 0.037-4e-3 0.075-5e-3 0.114-5e-3 0.45 0 0.848 0.224 1.089 0.566 0.281 2e-3 0.587 0.019 0.901 0.052 0.038-0.076 0.068-0.163 0.086-0.257 0.067-0.344-0.052-0.654-0.263-0.722-0.375-0.122-0.835 0.024-1.19 0.021-0.672-7e-3 -1.215-0.553-1.215-1.226 0-0.053 3e-3 -0.105 0.01-0.157-0.211-0.131-0.351-0.365-0.351-0.631 0-0.133 0.035-0.258 0.096-0.366 0.207 0.241 0.476 0.428 0.783 0.536 0.026 0.59 0.512 1.06 1.108 1.06 0.091 0 0.181-0.011 0.265-0.032-0.604-0.076-1.072-0.592-1.072-1.217 0-0.045 3e-3 -0.09 8e-3 -0.135-0.075-0.09-0.12-0.207-0.12-0.333 0-0.161 0.072-0.305 0.185-0.402 0.114 0.25 0.389 0.485 0.745 0.605 0.239 0.08 0.474 0.096 0.67 0.056-0.031 0.094-0.047 0.194-0.047 0.297 0 0.534 0.432 0.966 0.965 0.966 0.049 0 0.098-4e-3 0.145-0.011-0.372-0.051-0.658-0.369-0.658-0.754 0-0.256 0.126-0.482 0.319-0.621 0-0.013-1e-3 -0.027-1e-3 -0.041 0-0.21 0.096-0.396 0.247-0.519 0.067 0.35 0.374 0.614 0.744 0.614 0.316 0 0.577 0.04 0.772 0.104 0.33 0.108 0.571 0.413 0.571 0.778 0 0.253-0.115 0.479-0.296 0.628 0.089 0.41 0.073 1.083-0.066 1.643 0.028 4e-3 0.057 6e-3 0.087 6e-3 0.23 0 0.433-0.118 0.551-0.298m-25.94 2.827 0.138 0.271c0.027 0.052 0.038 0.108 0.037 0.163-1e-3 0.054-0.015 0.11-0.043 0.16l0.379-0.682c0.028-0.051 0.042-0.106 0.043-0.161 2e-3 -0.055-0.01-0.112-0.037-0.164l-0.034-0.067c-0.233-0.452-0.45-1.299-0.209-1.79-0.562 0.209-0.747 0.701-0.687 1.109-1.057 1.003-1.324 2.02-0.569 2.872l0.388 0.453c0.039 0.044 0.064 0.096 0.075 0.149 0.013 0.053 0.013 0.11-2e-3 0.166l0.202-0.753c0.015-0.057 0.016-0.114 3e-3 -0.168-0.012-0.053-0.037-0.105-0.075-0.149l-0.118-0.138c-0.395-0.46-0.289-1.083 0.33-1.642 0.064 0.157 0.106 0.238 0.179 0.371m1.408 5.442h-0.249c-0.27 0-0.509 0.362-0.509 0.687 0.148-0.165 0.304-0.236 0.516-0.236h1.142c0.102 0 0.204-0.079 0.248-0.21 0.032-0.097 0.014-0.241-4e-3 -0.382-0.055 0.104-0.124 0.141-0.213 0.141h-0.26c0.062-0.075 0.099-0.171 0.099-0.277 0-0.24-0.195-0.435-0.435-0.435s-0.435 0.195-0.435 0.435c0 0.106 0.037 0.202 0.1 0.277m0.287 2.062 0.474-0.603c0.106-0.128 0.139-0.214 0.264-0.231h-0.398c-0.199 0-0.336 0.081-0.452 0.215l-0.455 0.594c-0.075 0.094-0.134 0.16-0.232 0.203h0.45c0.135 0 0.255-0.058 0.349-0.178m1.319 0.147 0.582-0.818c0.092-0.134 0.179-0.209 0.304-0.26h-0.533c-0.205 0-0.328 0.094-0.418 0.242l-0.458 0.702c-0.175 0.263-0.244 0.328-0.445 0.4h0.495c0.195 0 0.377-0.127 0.473-0.266m2.081-0.981h-0.398c-0.199 0-0.336 0.081-0.452 0.215l-0.455 0.594c-0.075 0.094-0.134 0.16-0.232 0.203h0.45c0.135 0 0.255-0.058 0.349-0.178l0.474-0.603c0.106-0.128 0.139-0.214 0.264-0.231m0.151-0.541c0-0.325-0.238-0.687-0.509-0.687h-0.248c0.062-0.075 0.1-0.171 0.1-0.277 0-0.24-0.195-0.435-0.435-0.435-0.241 0-0.436 0.195-0.436 0.435 0 0.106 0.038 0.202 0.1 0.277h-0.26c-0.089 0-0.158-0.037-0.213-0.141-0.018 0.141-0.036 0.285-4e-3 0.382 0.044 0.131 0.146 0.21 0.248 0.21h1.142c0.211 0 0.368 0.071 0.515 0.236m-0.351-2.471c-0.079-0.021-0.122-0.067-0.131-0.15-0.047-0.446-0.228-0.626-0.517-0.727-4e-3 -0.45-0.066-0.79-0.188-1.212 0.343-0.717 0.08-1.218-0.198-1.325-0.265-0.103-0.607 0.035-0.91 0.035s-0.65-0.138-0.915-0.035c-0.279 0.107-0.541 0.608-0.199 1.325-0.121 0.422-0.184 0.762-0.187 1.212-0.289 0.101-0.471 0.281-0.518 0.727-9e-3 0.083-0.052 0.129-0.13 0.15-1.14 0.313-1.248 1.729-0.671 2.13-0.051-0.634-0.106-1.529 1.19-1.648-0.021-0.744 0.301-0.943 0.632-0.943 0.271-1e-3 0.426 0.086 0.494 0.122 0.241 0.128 0.075 0.324 0.013 0.382-0.166 0.155-0.25 0.375-0.21 0.594 7e-3 0.04 0.022 0.06 0.059 0.06h0.878c0.037 0 0.053-0.02 0.06-0.06 0.039-0.219-0.045-0.439-0.21-0.594-0.062-0.058-0.228-0.254 0.013-0.382 0.067-0.036 0.223-0.123 0.494-0.122 0.331 0 0.653 0.199 0.632 0.943 1.296 0.119 1.241 1.014 1.19 1.648 0.577-0.401 0.468-1.817-0.671-2.13m-1.148-2.729c0.034 0.379-0.397 0.514-0.799 0.514s-0.832-0.135-0.799-0.514c0.041-0.462 0.473-0.242 0.799-0.244 0.326 2e-3 0.758-0.218 0.799 0.244m-0.133 0.899c0.062 0.334 0.088 0.658 0.076 0.97l-0.299-0.35c-0.059 0.139-0.098 0.225-0.138 0.294-0.033 0.057-0.061 0.096-0.1 0.103-0.02-0.011-0.05-0.027-0.083-0.034-0.038-9e-3 -0.09-6e-3 -0.122-6e-3 -0.031 0-0.083-3e-3 -0.122 6e-3 -0.032 7e-3 -0.062 0.023-0.082 0.034-0.04-7e-3 -0.067-0.046-0.1-0.103-0.04-0.069-0.079-0.155-0.138-0.294l-0.3 0.35c-0.011-0.312 0.014-0.636 0.077-0.97 0.221 0.048 0.449 0.066 0.665 0.066s0.444-0.018 0.666-0.066m5.44 9.331c0.048 0 0.095-3e-3 0.141-8e-3 -0.468-0.135-0.846-0.484-1.021-0.934-0.291-0.096-0.501-0.371-0.501-0.694 0-0.151 0.046-0.291 0.124-0.407 0.253 0.282 0.585 0.493 0.962 0.595 0.108 0.542 0.559 0.96 1.117 1.019-0.487-0.204-0.829-0.686-0.829-1.247 0-0.199 0.043-0.387 0.12-0.557 0.086 0.309 0.369 0.536 0.705 0.536 0.085 0 0.166-0.014 0.241-0.041 0.104-0.038 0.217-0.059 0.334-0.059 0.541 0 0.979 0.44 0.979 0.982 0 0.108-0.017 0.212-0.049 0.309 0.257-0.074 0.446-0.312 0.446-0.594 0-0.129-0.04-0.248-0.107-0.348 0.072-0.013 0.146-0.019 0.222-0.019 0.637 0 1.163 0.479 1.236 1.097 0.32 0.173 0.601 0.407 0.843 0.699l0.17-0.829c0.012-0.058 9e-3 -0.115-7e-3 -0.168-0.015-0.052-0.043-0.102-0.084-0.145l0.703 0.723c0.041 0.042 0.069 0.092 0.083 0.145 0.016 0.053 0.019 0.11 7e-3 0.167l-0.207 1.012c-0.012 0.057-9e-3 0.115 7e-3 0.167 0.015 0.053 0.043 0.103 0.084 0.145l0.553 0.564c-0.041-0.043-0.069-0.093-0.084-0.145-0.015-0.053-0.018-0.11-6e-3 -0.168l0.207-1.013c0.012-0.057 9e-3 -0.114-6e-3 -0.167-0.015-0.052-0.042-0.101-0.082-0.143l0.627 0.652c0.04 0.042 0.068 0.092 0.083 0.145 0.016 0.052 0.019 0.11 7e-3 0.167l-0.207 1.01c-0.012 0.057-9e-3 0.115 7e-3 0.167 0.015 0.053 0.043 0.103 0.084 0.145l0.553 0.564c-0.041-0.042-0.069-0.092-0.084-0.145s-0.018-0.11-6e-3 -0.167l0.208-1.013c0.012-0.057 8e-3 -0.115-7e-3 -0.167s-0.042-0.101-0.082-0.143l0.627 0.651c0.041 0.042 0.068 0.092 0.083 0.145 0.016 0.053 0.019 0.11 7e-3 0.168l-0.101 0.494c-0.106 0.559 0.471 1.202 0.929 1.267 0.055 0.106 0.085 0.221 0.085 0.34 0 0.567-0.675 1.027-1.509 1.027-0.407 0-0.777-0.11-1.049-0.289 0.109-0.323 0.132-0.651-0.937-0.803-0.848-0.121-1.594-0.285-2.161-0.766-0.874-0.741-0.803-1.732-1.3-2.107 0.221-0.054 0.502-0.054 0.803 0.011 0.19 0.041 0.366 0.104 0.521 0.181-0.093-0.178-0.306-0.347-0.586-0.467-0.092-0.35-0.403-0.684-0.823-0.84-0.265-0.098-0.528-0.108-0.746-0.045l-1.023 0.296c-0.126 0.036-0.257 0.055-0.394 0.055-0.754 0-1.376-0.581-1.468-1.332-0.356-0.05-0.629-0.356-0.629-0.725 0-0.136 0.037-0.263 0.101-0.371 0.245 0.249 0.556 0.434 0.904 0.528 0.146 0.515 0.62 0.893 1.182 0.893m0.073-5.77c-0.018 0.089-0.016 0.181 3e-3 0.272 0.038 0.176 0.194 0.309 0.382 0.309 0.216 0 0.39-0.175 0.39-0.391 0-0.103-0.04-0.197-0.105-0.267 0.073-7e-3 0.148-0.011 0.226-0.011 0.201 0 0.392 0.025 0.56 0.07 0.275 0.074 0.477 0.325 0.477 0.623 0 0.356-0.289 0.644-0.645 0.644-0.019 0-0.039-1e-3 -0.058-2e-3 0.09 0.038 0.189 0.059 0.293 0.059 0.413 0 0.749-0.335 0.749-0.749 0-0.021-1e-3 -0.043-3e-3 -0.064 1.116 0.025 2.374 1.043 2.649 1.431-0.35-0.08-0.729-0.124-1.125-0.124-0.449 0-0.878 0.055-1.266 0.158-0.549 0.145-1.089 0.226-1.504 0.226-1.369 0-2.479-0.893-2.479-1.995 0-0.91 0.752-1.705 1.794-1.918 2.371-0.485 5.16 0.924 7.516 1.412 0.589 0.576 1.27 1.057 2.019 1.42-0.022 0.087-0.034 0.177-0.034 0.269v6e-3c-3.126-0.514-5.939-2.118-8.479-2.105-0.712 3e-3 -1.27 0.276-1.36 0.727m16.81 6.949c0.041 0.101 0.064 0.212 0.064 0.328 0 0.473-0.383 0.858-0.856 0.858h-0.866c-0.059-1e-3 -0.114 0.014-0.163 0.04-0.048 0.025-0.092 0.063-0.125 0.111l-0.434 0.641c0.033-0.049 0.076-0.086 0.125-0.111 0.048-0.026 0.104-0.041 0.163-0.04l1.141-1e-3c0.059 0 0.115-0.014 0.163-0.04 0.049-0.025 0.092-0.063 0.125-0.111l-0.524 0.767c-0.033 0.049-0.077 0.086-0.126 0.111-0.048 0.026-0.104 0.041-0.162 0.041l-1.132-1e-3c-0.058 0-0.114 0.014-0.162 0.04-0.049 0.026-0.093 0.063-0.126 0.111l-0.492 0.725c0.033-0.049 0.077-0.086 0.125-0.111 0.049-0.026 0.104-0.041 0.163-0.041l1.136 1e-3c0.059 0 0.115-0.014 0.163-0.04 0.049-0.025 0.092-0.063 0.125-0.111l-0.524 0.768c-0.033 0.048-0.077 0.085-0.126 0.111-0.048 0.025-0.104 0.04-0.162 0.04h-0.903c-0.059 0-0.114 0.015-0.163 0.04-0.048 0.026-0.092 0.063-0.125 0.112l-0.607 0.89c1.227 0.147 2.217 0.812 2.414 1.728 0.256 1.188-0.926 2.341-2.636 2.592-0.288 0.042-0.508 0.289-0.508 0.588 0 0.254 0.16 0.472 0.385 0.556-0.182 0.079-0.386 0.123-0.602 0.123-0.756 0-1.37-0.542-1.37-1.211 0-0.12 0.021-0.237 0.058-0.347-0.848-0.366-1.62-1.015-2.211-1.716 0.632 0.168 1.296 0.258 1.981 0.258-3e-3 0.032-5e-3 0.064-5e-3 0.097 0 0.512 0.415 0.928 0.928 0.928h0.013c-0.35-0.154-0.52-0.49-0.52-0.712 0-0.265 0.215-0.48 0.479-0.48 0.103 0 0.199 0.033 0.277 0.088-0.018 0.06-0.028 0.124-0.028 0.191 0 0.367 0.297 0.664 0.665 0.664 0.032 0 0.065-2e-3 0.096-7e-3 -0.253-0.118-0.429-0.376-0.429-0.674 0-0.411 0.333-0.744 0.744-0.744 0.044 0 0.086 3e-3 0.128 0.01-0.012 0.044-0.018 0.089-0.018 0.136 0 0.295 0.239 0.533 0.533 0.533 0.295 0 0.534-0.238 0.534-0.533 0-0.641-0.712-0.7-1.231-0.551-1.478 0.426-2.862 0.617-4.201 0.429-1.718-0.241-4.532-1.402-7.519-1.305-0.668 0.021-1.397 0.132-2.131 0.333 0.09-0.099 0.148-0.167 0.186-0.225 0.291-0.453 0.391-0.928 0.134-1.522 7e-3 0.666-0.543 1.214-1.004 1.55-0.186 0.135-0.261 0.264-0.23 0.437l0.136 0.768c-0.01-0.057-5e-3 -0.114 0.012-0.166s0.046-0.101 0.088-0.142l0.287-0.281c0.109 0.777-0.067 1.502-0.53 2.173 0.205 0.536 0.233 1.127 0.096 1.682-0.054-0.42-0.26-0.6-0.455-0.722-0.364-0.228-0.424-0.611-0.236-0.868-0.306 0.156-0.73 0.725-0.485 1.058 0.264 0.359 0.987 0.19 1.076 0.806-0.469 0.149-0.952 0.044-1.099 4e-3 -0.278 0.319-0.647 0.477-1.106 0.474-0.363 0.329-0.829 0.466-1.399 0.409-0.569 0.057-1.035-0.08-1.398-0.409-0.459 3e-3 -0.828-0.155-1.106-0.474-0.148 0.04-0.63 0.145-1.1-4e-3 0.089-0.616 0.812-0.447 1.076-0.806 0.245-0.333-0.178-0.902-0.485-1.058 0.189 0.257 0.128 0.64-0.236 0.868-0.194 0.122-0.401 0.302-0.455 0.722-0.137-0.555-0.108-1.146 0.096-1.682-0.463-0.671-0.639-1.396-0.53-2.173l0.288 0.281c0.042 0.041 0.071 0.09 0.088 0.142s0.021 0.109 0.011 0.166l0.136-0.768c0.031-0.173-0.043-0.302-0.229-0.437-0.462-0.336-1.012-0.884-1.005-1.55-0.256 0.594-0.152 1.089 0.135 1.522-0.876 0.473-1.543 1.25-1.666 1.392-0.265 0.308-0.23 0.701 0.01 1.045 0.463 0.662 0.573 1.368-8e-3 1.851 4e-3 0.035 6e-3 0.071 6e-3 0.107 0 0.439-0.312 0.805-0.727 0.887 0.077-0.119 0.122-0.262 0.122-0.415 0-0.175-0.058-0.336-0.157-0.466 0.082-0.107 0.131-0.242 0.131-0.388 0-0.196-0.088-0.371-0.227-0.488 0.014 0.067 0.021 0.137 0.021 0.209 0 0.452-0.28 0.83-0.659 0.934-0.061 0.328-0.349 0.577-0.695 0.577-0.201 0-0.381-0.083-0.51-0.217 0.268-0.021 0.484-0.231 0.513-0.497-0.128-0.096-0.231-0.229-0.298-0.384h0.017c0.463 0 0.838-0.375 0.838-0.838 0-0.052-5e-3 -0.104-0.014-0.154-0.035 0.19-0.121 0.366-0.26 0.501-0.26 0.254-0.638 0.307-0.984 0.175-0.13 0.163-0.33 0.268-0.554 0.268-0.254 0-0.476-0.133-0.601-0.333 0.256-0.011 0.481-0.14 0.622-0.335-0.364-0.466-0.368-1.11 4e-3 -1.473 0.252-0.246 0.613-0.303 0.95-0.187 0.022 7e-3 0.046 0.011 0.071 0.011 0.124 0 0.224-0.1 0.224-0.223s-0.1-0.223-0.224-0.223c-0.054 0-0.104 0.019-0.142 0.051-0.085 0.071-0.195 0.113-0.314 0.113-0.27 0-0.49-0.219-0.49-0.49 0-0.021 1e-3 -0.041 4e-3 -0.061-0.046-0.014-0.095-0.022-0.146-0.022-0.132 0-0.252 0.054-0.34 0.14-0.014-0.053-0.021-0.109-0.021-0.167 0-0.345 0.266-0.628 0.605-0.654 0.152-0.378 0.523-0.644 0.955-0.644 0.222 0 0.427 0.07 0.595 0.188 0.074 0.051 0.162 0.082 0.258 0.082 0.249 0 0.451-0.202 0.451-0.451 0-0.215-0.15-0.394-0.351-0.44l-0.351-0.077c-0.057-0.013-0.115-0.01-0.168 5e-3 -0.053 0.014-0.103 0.041-0.145 0.081l0.803-0.762c0.043-0.04 0.093-0.068 0.146-0.082 0.053-0.015 0.11-0.018 0.168-5e-3l0.657 0.146c0.057 0.013 0.115 0.01 0.167-5e-3 0.053-0.014 0.104-0.042 0.146-0.082l0.551-0.524c-0.043 0.04-0.093 0.068-0.146 0.082-0.053 0.015-0.11 0.018-0.167 5e-3l-0.657-0.145c-0.057-0.013-0.115-0.01-0.167 5e-3 -0.053 0.014-0.104 0.041-0.146 0.081l0.736-0.698c0.042-0.04 0.093-0.067 0.145-0.082 0.053-0.015 0.111-0.017 0.168-4e-3l0.658 0.144c0.058 0.012 0.115 0.01 0.168-5e-3 0.053-0.014 0.103-0.042 0.146-0.082l0.551-0.524c-0.043 0.04-0.093 0.067-0.146 0.082s-0.11 0.017-0.168 5e-3l-0.656-0.145c-0.058-0.013-0.115-0.01-0.168 5e-3 -0.053 0.014-0.103 0.041-0.146 0.082l0.736-0.698c0.043-0.041 0.093-0.068 0.146-0.082 0.053-0.015 0.11-0.018 0.168-5e-3l0.795 0.174c-0.772-0.436-1.594-0.93-2.465-1.481-0.515-0.325-1.078-0.386-1.725-0.138-0.347 0.133-0.725 0.155-0.963 0.114-0.31-0.053-0.573-0.241-0.726-0.502 0.12 0.048 0.251 0.075 0.389 0.075 0.289 0 0.55-0.117 0.74-0.305-0.301 0.126-0.675 0.139-1.038 6e-3 -0.65-0.236-1.029-0.849-0.881-1.398-0.242-0.093-0.413-0.328-0.413-0.602 0-0.181 0.074-0.345 0.194-0.462 0.064 0.288 0.316 0.505 0.621 0.516 0.127-0.084 0.275-0.143 0.434-0.175 0.048 0.083 0.109 0.157 0.179 0.221-7e-3 0.052-0.011 0.105-0.011 0.159 0 0.593 0.48 1.074 1.073 1.074 0.049 0 0.098-3e-3 0.145-0.01-0.471-0.113-0.822-0.537-0.822-1.044 0-0.064 6e-3 -0.127 0.017-0.188-0.254-0.098-0.433-0.343-0.433-0.631 0-0.165 0.059-0.316 0.158-0.434 0.182 0.356 0.537 0.608 0.954 0.648 0.157-0.046 0.323-0.071 0.495-0.071 0.107 0 0.212 0.01 0.314 0.028-0.092 0.134-0.146 0.297-0.146 0.472 0 0.461 0.374 0.834 0.835 0.834 0.04 0 0.079-2e-3 0.118-8e-3 -0.441-0.187-0.711-0.57-0.618-0.919 0.066-0.247 0.299-0.418 0.6-0.475-4e-3 -0.185-0.055-0.359-0.142-0.51 0.387 0.028 0.718 0.261 0.883 0.592 0.456 0.183 0.737 0.574 0.643 0.929-0.034 0.127-0.112 0.234-0.22 0.315-1e-3 0.012-2e-3 0.025-2e-3 0.037 0 0.244 0.199 0.443 0.443 0.443 0.245 0 0.443-0.199 0.443-0.443 0-0.116-0.044-0.221-0.117-0.3h0.927c0.058 0 0.114 0.015 0.162 0.041 0.049 0.025 0.092 0.063 0.125 0.112l0.595 0.882c0.022 0.033 0.052 0.058 0.085 0.076 0.033 0.017 0.071 0.028 0.111 0.028h0.728c-0.04 0-0.078-0.011-0.111-0.028-0.033-0.018-0.063-0.043-0.085-0.076l-0.597-0.882c-0.033-0.049-0.076-0.087-0.125-0.112-0.048-0.026-0.103-0.041-0.162-0.041h1.108c0.059 0 0.114 0.015 0.162 0.041 0.049 0.025 0.093 0.063 0.125 0.112l0.668 0.985c-0.461 0.252-0.65 0.693-0.65 1.299 0 0.377 0.212 0.807 0.244 1.084l0.013 0.11c7e-3 0.058-1e-3 0.115-0.021 0.166-0.016 0.042-0.048 0.102-0.083 0.143l0.57-0.584c0.045-0.038 0.077-0.086 0.096-0.137 0.021-0.051 0.029-0.108 0.022-0.166l-0.017-0.134c-0.027-0.232-0.319-0.732 0.223-1.19 0.027-0.023 0.094-0.071 0.158-0.111l0.385-0.242v1.421h0.539v-1.581c1e-3 -0.059 0.018-0.114 0.045-0.162 0.027-0.047 0.065-0.09 0.115-0.121l0.527-0.335c0.05-0.032 0.105-0.049 0.159-0.053 0.055-4e-3 0.112 4e-3 0.165 0.027l0.971 0.422c-0.054-0.024-0.111-0.032-0.165-0.027-0.055 4e-3 -0.11 0.021-0.159 0.052l-1.115 0.71c0.542 0.458 0.249 0.958 0.222 1.19l-0.016 0.134c-7e-3 0.058 1e-3 0.115 0.021 0.166s0.052 0.099 0.096 0.137l0.57 0.584c-0.035-0.041-0.066-0.101-0.082-0.143-0.02-0.051-0.028-0.108-0.021-0.166l0.012-0.11c0.046-0.395 0.446-1.111 0.113-1.51l1.019-0.647c0.05-0.031 0.105-0.049 0.159-0.053 0.055-4e-3 0.112 4e-3 0.166 0.028l1.015 0.441c-0.054-0.023-0.11-0.031-0.164-0.027-0.055 4e-3 -0.11 0.021-0.16 0.053l-1.102 0.701c0.24 0.491 0.038 1.273-0.195 1.725l-0.035 0.067c-0.026 0.052-0.038 0.109-0.036 0.164 0 0.054 0.014 0.11 0.043 0.161l0.378 0.682c-0.028-0.05-0.042-0.106-0.042-0.16-2e-3 -0.055 0.01-0.111 0.036-0.163l0.139-0.271c0.073-0.133 0.114-0.214 0.178-0.371 0.62 0.559 0.758 1.098 0.363 1.557l-0.118 0.139c-0.038 0.044-0.063 0.096-0.075 0.149-0.013 0.054-0.013 0.111 3e-3 0.168l0.202 0.753c-0.015-0.056-0.015-0.113-3e-3 -0.166s0.037-0.105 0.076-0.15l0.388-0.452c0.754-0.852 0.298-1.95-0.602-2.787 0.05-0.161 0.093-0.462 0.057-0.625l1.195-0.758c0.05-0.032 0.105-0.049 0.16-0.053 0.054-5e-3 0.111 4e-3 0.165 0.027l0.864 0.376c-0.049-0.021-0.104-0.033-0.16-0.033-0.223 0-0.403 0.18-0.403 0.402 0 0.18 0.117 0.335 0.281 0.384 3.299 1.003 6.336 3.594 8.33 3.587 0.969-3e-3 1.755-0.589 1.755-1.316 0-0.117-0.021-0.231-0.059-0.34-0.425-1.194 0.194-2.334 1.829-2.774 0.26-0.07 0.452-0.308 0.452-0.59 0-0.055-8e-3 -0.109-0.021-0.159 0.037-4e-3 0.075-5e-3 0.114-5e-3 0.45 0 0.848 0.223 1.089 0.566 0.281 2e-3 0.587 0.019 0.901 0.052 0.038-0.076 0.068-0.163 0.086-0.257 0.067-0.344-0.052-0.654-0.263-0.722-0.375-0.122-0.835 0.024-1.19 0.02-0.672-6e-3 -1.215-0.552-1.215-1.226 0-0.052 3e-3 -0.104 0.01-0.156-0.211-0.131-0.351-0.365-0.351-0.631 0-0.133 0.035-0.258 0.096-0.366 0.207 0.241 0.476 0.428 0.783 0.536 0.026 0.59 0.512 1.06 1.108 1.06 0.091 0 0.181-0.011 0.265-0.032-0.604-0.076-1.072-0.592-1.072-1.217 0-0.045 3e-3 -0.09 8e-3 -0.135-0.075-0.091-0.12-0.207-0.12-0.334 0-0.16 0.072-0.304 0.185-0.401 0.114 0.25 0.389 0.484 0.745 0.605 0.239 0.08 0.474 0.096 0.67 0.056-0.031 0.094-0.047 0.194-0.047 0.297 0 0.534 0.432 0.966 0.965 0.966 0.049 0 0.098-4e-3 0.145-0.011-0.372-0.05-0.658-0.369-0.658-0.754 0-0.256 0.126-0.482 0.319-0.621 0-0.013-1e-3 -0.027-1e-3 -0.041 0-0.21 0.096-0.396 0.247-0.519 0.067 0.35 0.374 0.614 0.744 0.614 0.316 0 0.577 0.04 0.772 0.104 0.33 0.108 0.571 0.413 0.571 0.778 0 0.253-0.115 0.479-0.296 0.628 0.089 0.41 0.073 1.083-0.066 1.643 0.028 4e-3 0.057 6e-3 0.087 6e-3 0.23 0 0.433-0.119 0.551-0.298m-25.94 2.827 0.138 0.271c0.027 0.052 0.038 0.108 0.037 0.163-1e-3 0.054-0.015 0.11-0.043 0.16l0.379-0.682c0.028-0.051 0.042-0.107 0.043-0.161 2e-3 -0.055-0.01-0.112-0.037-0.164l-0.034-0.067c-0.233-0.452-0.45-1.299-0.209-1.79-0.562 0.209-0.747 0.701-0.687 1.11-1.057 1.002-1.324 2.019-0.569 2.871l0.388 0.453c0.039 0.044 0.064 0.096 0.075 0.149 0.013 0.053 0.013 0.11-2e-3 0.166l0.202-0.753c0.015-0.057 0.016-0.114 3e-3 -0.168-0.012-0.053-0.037-0.105-0.075-0.149l-0.118-0.138c-0.395-0.46-0.289-1.083 0.33-1.642 0.064 0.157 0.106 0.238 0.179 0.371m1.408 5.442h-0.249c-0.27 0-0.509 0.362-0.509 0.687 0.148-0.165 0.304-0.237 0.516-0.237h1.142c0.102 0 0.204-0.078 0.248-0.21 0.032-0.096 0.014-0.24-4e-3 -0.381-0.055 0.104-0.124 0.141-0.213 0.141h-0.26c0.062-0.075 0.099-0.172 0.099-0.277 0-0.24-0.195-0.435-0.435-0.435s-0.435 0.195-0.435 0.435c0 0.105 0.037 0.202 0.1 0.277m0.287 2.062 0.474-0.603c0.106-0.128 0.139-0.214 0.264-0.231h-0.398c-0.199 0-0.336 0.081-0.452 0.215l-0.455 0.594c-0.075 0.094-0.134 0.16-0.232 0.203h0.45c0.135 0 0.255-0.058 0.349-0.178m1.319 0.147 0.582-0.818c0.092-0.134 0.179-0.209 0.304-0.26h-0.533c-0.205 0-0.328 0.094-0.418 0.242l-0.458 0.702c-0.175 0.263-0.244 0.328-0.445 0.4h0.495c0.195 0 0.377-0.127 0.473-0.266m2.081-0.981h-0.398c-0.199 0-0.336 0.081-0.452 0.215l-0.455 0.594c-0.075 0.094-0.134 0.16-0.232 0.203h0.45c0.135 0 0.255-0.058 0.349-0.178l0.474-0.603c0.106-0.128 0.139-0.214 0.264-0.231m0.151-0.541c0-0.325-0.238-0.687-0.509-0.687h-0.248c0.062-0.075 0.1-0.172 0.1-0.277 0-0.24-0.195-0.435-0.435-0.435-0.241 0-0.436 0.195-0.436 0.435 0 0.105 0.038 0.202 0.1 0.277h-0.26c-0.089 0-0.158-0.037-0.213-0.141-0.018 0.141-0.036 0.285-4e-3 0.381 0.044 0.132 0.146 0.21 0.248 0.21h1.142c0.211 0 0.368 0.072 0.515 0.237m-0.351-2.471c-0.079-0.021-0.122-0.067-0.131-0.15-0.047-0.446-0.228-0.626-0.517-0.727-4e-3 -0.45-0.066-0.79-0.188-1.212 0.343-0.717 0.08-1.218-0.198-1.326-0.265-0.102-0.607 0.036-0.91 0.036s-0.65-0.138-0.915-0.036c-0.279 0.108-0.541 0.609-0.199 1.326-0.121 0.422-0.184 0.762-0.187 1.212-0.289 0.101-0.471 0.281-0.518 0.727-9e-3 0.083-0.052 0.129-0.13 0.15-1.14 0.313-1.248 1.729-0.671 2.13-0.051-0.634-0.106-1.529 1.19-1.648-0.021-0.744 0.301-0.943 0.632-0.943 0.271-1e-3 0.426 0.086 0.494 0.122 0.241 0.128 0.075 0.324 0.013 0.382-0.166 0.155-0.25 0.374-0.21 0.594 7e-3 0.039 0.022 0.06 0.059 0.06h0.878c0.037 0 0.053-0.021 0.06-0.06 0.039-0.22-0.045-0.439-0.21-0.594-0.062-0.058-0.228-0.254 0.013-0.382 0.067-0.036 0.223-0.123 0.494-0.122 0.331 0 0.653 0.199 0.632 0.943 1.296 0.119 1.241 1.014 1.19 1.648 0.577-0.401 0.468-1.817-0.671-2.13m-1.148-2.729c0.034 0.379-0.397 0.514-0.799 0.514s-0.832-0.135-0.799-0.514c0.041-0.462 0.473-0.242 0.799-0.244 0.326 2e-3 0.758-0.218 0.799 0.244m-0.133 0.899c0.062 0.334 0.088 0.658 0.076 0.97l-0.299-0.35c-0.059 0.139-0.098 0.225-0.138 0.294-0.033 0.057-0.061 0.096-0.1 0.103-0.02-0.011-0.05-0.027-0.083-0.034-0.038-9e-3 -0.09-6e-3 -0.122-6e-3 -0.031 0-0.083-3e-3 -0.122 6e-3 -0.032 7e-3 -0.062 0.023-0.082 0.034-0.04-7e-3 -0.067-0.046-0.1-0.103-0.04-0.069-0.079-0.155-0.138-0.294l-0.3 0.35c-0.011-0.312 0.014-0.636 0.077-0.97 0.221 0.048 0.449 0.066 0.665 0.066s0.444-0.018 0.666-0.066m13.37 3.244c0.589 0.576 1.27 1.057 2.019 1.42-0.022 0.087-0.034 0.177-0.034 0.269v6e-3c-3.126-0.514-5.939-2.118-8.479-2.105-0.712 3e-3 -1.27 0.276-1.36 0.727-0.018 0.089-0.016 0.181 3e-3 0.272 0.038 0.176 0.194 0.309 0.382 0.309 0.216 0 0.39-0.175 0.39-0.391 0-0.103-0.04-0.197-0.105-0.267 0.073-7e-3 0.148-0.011 0.226-0.011 0.201 0 0.392 0.025 0.56 0.07 0.275 0.074 0.477 0.325 0.477 0.623 0 0.356-0.289 0.644-0.645 0.644-0.019 0-0.039-1e-3 -0.058-2e-3 0.09 0.038 0.189 0.059 0.293 0.059 0.413 0 0.749-0.335 0.749-0.749 0-0.022-1e-3 -0.043-3e-3 -0.064 1.116 0.025 2.374 1.043 2.649 1.431-0.35-0.08-0.729-0.124-1.125-0.124-0.449 0-0.878 0.055-1.266 0.158-0.549 0.145-1.089 0.226-1.504 0.226-1.369 0-2.479-0.893-2.479-1.995 0-0.91 0.752-1.705 1.794-1.918 2.371-0.485 5.16 0.924 7.516 1.412m-10.11-40.46c0-0.135 0.037-0.262 0.101-0.371 0.245 0.249 0.556 0.434 0.904 0.528 0.146 0.516 0.62 0.893 1.182 0.893 0.048 0 0.095-2e-3 0.141-8e-3 -0.468-0.135-0.846-0.484-1.021-0.934-0.291-0.096-0.501-0.371-0.501-0.694 0-0.151 0.046-0.291 0.124-0.407 0.253 0.283 0.585 0.493 0.962 0.595 0.108 0.542 0.559 0.96 1.117 1.019-0.487-0.204-0.829-0.686-0.829-1.247 0-0.198 0.043-0.387 0.12-0.557 0.086 0.309 0.369 0.536 0.705 0.536 0.085 0 0.166-0.014 0.241-0.041 0.104-0.038 0.217-0.058 0.334-0.058 0.541 0 0.979 0.439 0.979 0.981 0 0.108-0.017 0.212-0.049 0.31 0.257-0.075 0.446-0.313 0.446-0.595 0-0.129-0.04-0.248-0.107-0.347 0.072-0.013 0.146-0.02 0.222-0.02 0.637 0 1.163 0.479 1.236 1.097 0.32 0.173 0.601 0.407 0.843 0.699l0.17-0.829c0.012-0.057 9e-3 -0.115-7e-3 -0.167-0.015-0.053-0.043-0.103-0.084-0.145l0.703 0.722c0.041 0.042 0.069 0.092 0.083 0.145 0.016 0.053 0.019 0.11 7e-3 0.168l-0.207 1.011c-0.012 0.057-9e-3 0.115 7e-3 0.167 0.015 0.053 0.043 0.103 0.084 0.145l0.553 0.564c-0.041-0.042-0.069-0.092-0.084-0.145s-0.018-0.11-6e-3 -0.167l0.207-1.013c0.012-0.058 9e-3 -0.115-6e-3 -0.168-0.015-0.052-0.042-0.101-0.082-0.143l0.627 0.652c0.04 0.042 0.068 0.092 0.083 0.145 0.016 0.052 0.019 0.11 7e-3 0.167l-0.207 1.01c-0.012 0.057-9e-3 0.115 7e-3 0.167 0.015 0.053 0.043 0.103 0.084 0.145l0.553 0.564c-0.041-0.042-0.069-0.092-0.084-0.145-0.015-0.052-0.018-0.11-6e-3 -0.167l0.208-1.013c0.012-0.057 8e-3 -0.115-7e-3 -0.167s-0.042-0.101-0.082-0.143l0.627 0.651c0.041 0.042 0.068 0.093 0.083 0.145 0.016 0.053 0.019 0.11 7e-3 0.168l-0.101 0.494c-0.106 0.559 0.471 1.202 0.929 1.267 0.055 0.106 0.085 0.221 0.085 0.34 0 0.567-0.675 1.027-1.509 1.027-0.407 0-0.777-0.11-1.049-0.289 0.109-0.323 0.132-0.651-0.937-0.803-0.848-0.12-1.594-0.285-2.161-0.766-0.874-0.741-0.803-1.732-1.3-2.107 0.221-0.054 0.502-0.054 0.803 0.011 0.19 0.041 0.366 0.104 0.521 0.182-0.093-0.179-0.306-0.348-0.586-0.468-0.092-0.35-0.403-0.684-0.823-0.84-0.265-0.098-0.528-0.108-0.746-0.045l-1.023 0.296c-0.126 0.036-0.257 0.055-0.394 0.055-0.754 0-1.376-0.581-1.468-1.332-0.356-0.05-0.629-0.356-0.629-0.725" fill="#1575c5"/><g transform="translate(71.69 43.43)"><path d="m0 0c0-0.539-0.112-0.968-0.336-1.287-0.223-0.319-0.505-0.478-0.845-0.478-0.385 0-0.689 0.142-0.911 0.425-0.221 0.284-0.332 0.712-0.332 1.284h-1.212l-0.019-0.037c-0.017-0.862 0.2-1.516 0.65-1.961 0.449-0.446 1.057-0.669 1.824-0.669 0.713 0 1.297 0.246 1.753 0.737s0.684 1.153 0.684 1.986v6.458h-1.256zm7.173 4.649v-4.739c0-0.521-0.128-0.927-0.382-1.216-0.255-0.29-0.602-0.434-1.042-0.434-0.435 0-0.781 0.144-1.038 0.434-0.257 0.289-0.385 0.695-0.385 1.216v4.739h-1.256v-4.748c0-0.817 0.247-1.454 0.74-1.912s1.14-0.687 1.939-0.687c0.8 0 1.447 0.229 1.94 0.687s0.739 1.095 0.739 1.912v4.748zm6.24-6.098c-0.211-0.194-0.524-0.291-0.938-0.291-0.386 0-0.702 0.1-0.948 0.303-0.247 0.201-0.37 0.53-0.37 0.986h-1.206l-0.019-0.037c-0.02-0.743 0.205-1.297 0.678-1.662 0.472-0.365 1.094-0.548 1.865-0.548 0.766 0 1.376 0.179 1.83 0.537s0.681 0.849 0.681 1.474c0 0.606-0.18 1.07-0.541 1.391-0.36 0.32-0.92 0.591-1.678 0.811-0.564 0.172-0.936 0.346-1.116 0.52s-0.27 0.415-0.27 0.723c0 0.299 0.092 0.547 0.276 0.741 0.185 0.195 0.467 0.293 0.849 0.293 0.377 0 0.662-0.117 0.854-0.35 0.193-0.233 0.289-0.541 0.289-0.925h1.206l0.013 0.037c0.016 0.688-0.186 1.226-0.606 1.614-0.421 0.387-1.006 0.581-1.756 0.581-0.73 0-1.309-0.184-1.738-0.553-0.429-0.368-0.643-0.852-0.643-1.453 0-0.616 0.179-1.08 0.538-1.389 0.358-0.312 0.931-0.577 1.718-0.796 0.514-0.17 0.868-0.346 1.06-0.53 0.193-0.184 0.289-0.424 0.289-0.721 0-0.31-0.105-0.562-0.317-0.756m7.409 6.098h-4.96v-0.957h1.834v-6.284h1.256v6.284h1.87zm2.717 0h-1.256v-7.241h1.256zm3.132 0h-1.256v-7.241h1.256zm6.402 0h-4.96v-0.957h1.834v-6.284h1.255v6.284h1.871zm4.388-6.098c-0.211-0.194-0.524-0.291-0.938-0.291-0.386 0-0.702 0.1-0.948 0.303-0.247 0.201-0.37 0.53-0.37 0.986h-1.206l-0.018-0.037c-0.021-0.743 0.205-1.297 0.677-1.662s1.094-0.548 1.865-0.548c0.766 0 1.377 0.179 1.83 0.537 0.454 0.358 0.681 0.849 0.681 1.474 0 0.606-0.18 1.07-0.541 1.391-0.36 0.32-0.92 0.591-1.678 0.811-0.564 0.172-0.935 0.346-1.116 0.52-0.18 0.174-0.27 0.415-0.27 0.723 0 0.299 0.092 0.547 0.276 0.741 0.185 0.195 0.468 0.293 0.849 0.293 0.377 0 0.662-0.117 0.855-0.35 0.192-0.233 0.289-0.541 0.289-0.925h1.206l0.012 0.037c0.016 0.688-0.186 1.226-0.606 1.614-0.421 0.387-1.006 0.581-1.756 0.581-0.729 0-1.309-0.184-1.737-0.553-0.429-0.368-0.644-0.852-0.644-1.453 0-0.616 0.179-1.08 0.538-1.389 0.358-0.312 0.931-0.577 1.719-0.796 0.513-0.17 0.867-0.346 1.059-0.53 0.193-0.184 0.289-0.424 0.289-0.721 0-0.31-0.105-0.562-0.317-0.756m4.724 6.098h-1.585v-7.241h1.255v4.78l0.038 6e-3 1.56-4.786h0.852l1.553 4.755 0.038-6e-3v-4.749h1.262v7.241h-1.579l-1.684-5.693h-0.039zm8.129 0h-1.256v-7.241h1.256zm7.21 0h-1.26v-4.997l-0.038-0.013-2.778 5.01h-1.257v-7.241h1.257v5.004l0.036 0.012 2.78-5.016h1.26zm3.426 0h-1.257v-7.241h1.257zm5.059-6.098c-0.211-0.194-0.525-0.291-0.939-0.291-0.385 0-0.701 0.1-0.947 0.303-0.247 0.201-0.37 0.53-0.37 0.986h-1.206l-0.02-0.037c-0.019-0.743 0.205-1.297 0.679-1.662 0.472-0.365 1.094-0.548 1.864-0.548 0.767 0 1.377 0.179 1.83 0.537 0.454 0.358 0.682 0.849 0.682 1.474 0 0.606-0.182 1.07-0.541 1.391-0.361 0.32-0.92 0.591-1.678 0.811-0.564 0.172-0.936 0.346-1.116 0.52-0.181 0.174-0.27 0.415-0.27 0.723 0 0.299 0.091 0.547 0.276 0.741 0.185 0.195 0.467 0.293 0.849 0.293 0.377 0 0.662-0.117 0.854-0.35s0.289-0.541 0.289-0.925h1.206l0.013 0.037c0.015 0.688-0.187 1.226-0.607 1.614-0.42 0.387-1.005 0.581-1.755 0.581-0.73 0-1.309-0.184-1.738-0.553-0.429-0.368-0.643-0.852-0.643-1.453 0-0.616 0.178-1.08 0.538-1.389 0.358-0.312 0.93-0.577 1.718-0.796 0.514-0.17 0.867-0.346 1.06-0.53 0.192-0.184 0.289-0.424 0.289-0.721 0-0.31-0.106-0.562-0.317-0.756m7.155 6.098h-4.96v-0.957h1.833v-6.284h1.256v6.284h1.871zm5.128-2.996h-2.667v2.039h3.121v0.957h-4.376v-7.241h4.376v0.957h-3.121v2.331h2.667zm6.091 0h-2.667v2.039h3.121v0.957h-4.376v-7.241h4.376v0.957h-3.121v2.331h2.667zm4.693-1.311c0.331 0 0.586-0.106 0.764-0.317s0.267-0.508 0.267-0.889v-0.653c0-0.215 6e-3 -0.427 0.016-0.634s0.036-0.354 0.078-0.441h1.299v0.106c-0.055 0.087-0.09 0.223-0.109 0.41-0.019 0.186-0.028 0.371-0.028 0.553v0.665c0 0.435-0.088 0.801-0.261 1.097-0.174 0.297-0.456 0.505-0.845 0.625 0.347 0.162 0.613 0.383 0.795 0.665s0.274 0.615 0.274 1.001c0 0.667-0.208 1.187-0.625 1.56-0.416 0.373-0.993 0.559-1.731 0.559h-2.418v-7.241h1.256v2.934zm-1.268 3.35h1.162c0.365 0 0.637-0.11 0.821-0.329 0.182-0.22 0.272-0.516 0.272-0.889 0-0.377-0.089-0.667-0.269-0.87-0.181-0.203-0.455-0.305-0.824-0.305h-1.162zm6.861 0.957h-1.256v-7.241h1.256zm5.898 0v-4.739c0-0.521-0.127-0.927-0.381-1.216-0.255-0.29-0.602-0.434-1.041-0.434-0.435 0-0.782 0.144-1.039 0.434-0.256 0.289-0.385 0.695-0.385 1.216v4.739h-1.255v-4.748c0-0.817 0.246-1.454 0.739-1.912s1.14-0.687 1.94-0.687c0.798 0 1.446 0.229 1.939 0.687s0.74 1.095 0.74 1.912v4.748zm4.644 0h-1.585v-7.241h1.256v4.78l0.037 6e-3 1.56-4.786h0.852l1.554 4.755 0.037-6e-3v-4.749h1.262v7.241h-1.58l-1.684-5.693h-0.037z" fill="#231f20"/></g></g></g></svg>
