<svg id="Layer_1" enable-background="new 0 0 480.013 480.013" height="512" viewBox="0 0 480.013 480.013" width="512" xmlns="http://www.w3.org/2000/svg"><path d="m389.948 101.013v347c0 13.25-10.75 24-24 24h-302c-13.26 0-24-10.75-24-24v-416c0-13.25 10.74-24 24-24h233z" fill="#b9dcff"/><path d="m354.061 65.126c1.748 1.748 1.184 4.7-1.083 5.686-148.801 64.75-248.121 202.746-258.043 371.991-2.139 36.49-54.988 33.013-54.988-1.726v-405.563c0-15.189 12.313-27.501 27.501-27.501 244.124 0 228.999-.5 230.524 1.025z" fill="#d1e7ff"/><path d="m389.948 101.013h-69c-13.26 0-24-10.75-24-24v-69z" fill="#e8f3ff"/><path d="m440.068 322.013c0 53.598-43.461 97-97 97-72.441 0-119.219-76.719-86.47-141 16.062-31.491 48.795-53 86.47-53 53.529 0 97 43.393 97 97z" fill="#d1e7ff"/><path d="m387.19 235.47c14.377 7.263 9.518 29.14-6.584 29.57-51.971 1.39-93.025 42.979-94.503 94.162-.465 16.098-22.203 21.135-29.515 6.786-14.042-27.556-14.03-60.414.011-87.975 25.997-50.972 85.768-65.186 130.591-42.543z" fill="#e8f3ff"/><path d="m238.068 322.013c0 57.897 47.103 105 105 105s105-47.103 105-105c0-37.745-20.022-70.896-50-89.406v-131.594c0-2.61-1.256-4.921-3.19-6.382-99.397-99.397-92.966-93.788-96.367-94.462-1.189-.236 11.366-.156-234.566-.156-17.645 0-32 14.355-32 32v416c0 17.645 14.355 32 32 32h302c17.645 0 32-14.355 32-32 0-4.418-3.582-8-8-8s-8 3.582-8 8c0 8.822-7.178 16-16 16h-302c-8.822 0-16-7.178-16-16v-416c0-8.822 7.178-16 16-16h225v61c0 17.645 14.355 32 32 32h61.123v115.515c-13.043-5.236-27.215-7.882-42-7.469v-57.045c0-13.233-10.767-24-24-24h-202c-13.234 0-24 10.767-24 24v102c0 13.233 10.766 24 24 24h105c4.418 0 8-3.582 8-8s-3.582-8-8-8h-36v-51h72c4.418 0 8-3.582 8-8v-59h53c4.411 0 8 3.589 8 8v58.727c-48.858 8.966-86 51.861-86 103.272zm82.877-229c-8.822 0-16-7.178-16-16v-49.686l65.687 65.687h-49.687zm-206.877 59h53v51h-61v-43c0-4.411 3.589-8 8-8zm53 118h-53c-4.411 0-8-3.589-8-8v-43h61zm80-67h-64v-51h64zm185 119c0 49.075-39.925 89-89 89s-89-39.925-89-89 39.925-89 89-89 89 39.925 89 89zm-81 20v-3.237c0-3.518-2.256-6.586-5.614-7.636l-9.544-2.982c-10.074-3.148-16.842-12.354-16.842-22.907v-3.237c0-10.429 6.689-19.321 16-22.624v-3.376c0-4.418 3.582-8 8-8s8 3.582 8 8v3.376c9.311 3.303 16 12.195 16 22.624 0 4.418-3.582 8-8 8s-8-3.582-8-8c0-4.411-3.589-8-8-8s-8 3.589-8 8v3.237c0 3.518 2.256 6.586 5.614 7.636l9.544 2.982c10.074 3.148 16.842 12.354 16.842 22.907v3.237c0 11.519-8.159 21.165-19 23.472v2.528c0 4.418-3.582 8-8 8s-8-3.582-8-8v-4.68c-7.713-3.996-13-12.05-13-21.32 0-4.418 3.582-8 8-8s8 3.582 8 8c0 4.411 3.589 8 8 8s8-3.589 8-8zm-261-12c0-4.418 3.582-8 8-8h78c4.418 0 8 3.582 8 8s-3.582 8-8 8h-78c-4.418 0-8-3.582-8-8zm0 60c0-4.418 3.582-8 8-8h98c4.418 0 8 3.582 8 8s-3.582 8-8 8h-98c-4.418 0-8-3.582-8-8z" fill="#2e58ff"/></svg>