<svg width="209.77" height="68.304" version="1.1" viewBox="0 0 209.77 68.304" xml:space="preserve" xmlns="http://www.w3.org/2000/svg">
<style type="text/css">
	.st0{fill:#253D97;}
</style>
<path class="st0" d="m5.7445 19.602c-2.9 0.2 3.2 7.9 9.2 7.9 7.5 0 12.9-5.2 22.2-0.7 8.7 4.2 3.1 18.1 2 21.1-1 3-3.8 7-3 7.3 1.4 0.5 4.6-7.7 13.3-11.6 9.9-4.3 18.6 0.9 19.1 0 0.4-0.7-1.9-1.7-4.5-2.9-1.7-0.7-3.3-1.3-1.6-1.9 3.1-0.9 0.8-1.6 0.3-2.2-0.7-1-1.6-1.3-2.7-1.5-1.1-0.1 0.3-1.2-2.1-1-1.4 0.1 0.9 1 0.7 1.8-0.4 1.4-1.4 1.9-2.1 1.7-3.4-0.8-4.4-1.3-8-0.6-3.5 0.7-5.7 5.4-4.3 2.9 2-3.5 6.1-13.6 6.3-22.4 0.1-8.8-5.1-12.6-13-12.5-10.6 0.1-25.3 14.2-31.8 14.6m43.4 43 2.9-14.4c0.1-0.5 0.3-0.6 0.6-0.7 0.6-0.2 2.7-0.3 3.9-0.3 1.4 0 6.3 0 5.4 4.6-0.5 2.3-2.2 3.5-3.8 4.2l2.5 6.3c0.1 0.2 0.1 0.3 0.1 0.5-0.1 0.3-0.3 0.4-0.6 0.4h-2.9c-0.5 0-0.6-0.1-0.8-0.5l-1.6-5.6c0-0.1-0.1-0.4-0.4-0.4s-0.4 0.3-0.4 0.5l-1.1 5.3c-0.1 0.4-0.2 0.6-0.7 0.6h-2.7c-0.3 0-0.4-0.1-0.4-0.5m5.4-7.6c0.8 0 3 0.1 3.6-2.8 0.5-2.7-0.9-2.9-1.9-2.9h-0.6zm36.2 2c-0.6 3.8-3.4 6.3-6.6 6.3-3 0-4.8-2.2-4.1-6.1 0.8-4.1 3.7-6.1 6.6-6.1 3.6 0 4.6 3 4.1 5.9m-4.6-3.8c-1.2 0-2 2.1-2.3 3.7-0.3 1.7-0.4 4 0.9 4s2.1-2.2 2.4-4c0.3-2.1 0-3.7-1-3.7zm38.7-1.2-2.1 10.5c-0.1 0.5-0.3 0.6-0.7 0.6h-2.6c-0.4 0-0.4-0.2-0.3-0.5l2.1-10.5c0.1-0.3 0.1-0.5 0.6-0.5h2.6c0.4-0.1 0.5 0 0.4 0.4m-1.4-1.7c-1 0-1.7-0.5-1.5-1.5 0.2-0.9 0.9-1.6 2.1-1.6s1.6 0.7 1.4 1.6c-0.2 1-1.1 1.5-2 1.5zm32.5 3.9-1.2 6.2c-0.1 0.5-0.2 1-0.7 1.5s-1.9 1.2-4.3 1.2c-0.9 0-4.8 0-4.1-3.3 0.6-2.9 3.7-3.6 6.7-4.2l0.2-1.2c0.1-0.7 0.3-1.7-0.7-1.7-0.8 0-1.2 0.6-1.4 1-0.4 0.6-0.7 1.3-1.8 1.3-1 0-1.4-0.7-1.2-1.4 0.2-1.2 2-2.7 5.4-2.7 0.8 0 1.8 0.1 2.5 0.5 1 0.8 0.7 2 0.6 2.8m-3.9 2.9c-1.3 0.4-2.6 0.8-2.9 2.4-0.2 1.2 0.4 1.7 1.1 1.7 1 0 1.2-0.9 1.3-1.4zm27.2-0.1c-0.6 3.8-3.4 6.3-6.6 6.3-3 0-4.8-2.2-4.1-6.1 0.8-4.1 3.7-6.1 6.6-6.1 3.6 0 4.6 3 4.1 5.9m-4.6-3.8c-1.2 0-2 2.1-2.3 3.7-0.3 1.7-0.4 4 0.9 4 1.2 0 2.1-2.2 2.4-4 0.3-2.1 0.1-3.7-1-3.7zm30.1-7-2.9 14.3c-0.2 0.7-0.3 1.2-1.1 1.7-0.7 0.4-2.4 0.9-4.1 0.9-3.8 0-5-2.4-4.3-5.8s3.1-6.4 6.2-6.4c0.9 0 1.4 0.3 1.7 0.4l1-5.1c0.1-0.5 0.4-0.6 0.7-0.6h2.3c0.4 0.1 0.6 0.1 0.5 0.6m-4.9 6.8c-0.2-0.1-0.5-0.3-0.9-0.3-1.5 0-2.6 2-3 4.1s-0.1 4 1.3 4c0.9 0 1.1-0.8 1.2-1.3zm-119.7 0c0.3 0 0.4 0 0.5-0.2l0.2-0.9c0.1-0.3 0-0.4-0.3-0.4h-1.6c-0.5-0.8-0.5-1.7-0.4-2.1 0.1-0.7 0.7-1.1 1.2-1.1 0.3 0 0.7 0.2 1 0.2 0.6 0 1.2-0.4 1.4-1.2s-0.3-1.4-1.4-1.4c-1.6 0-2.9 1-3.7 2-1 1.3-1.4 2.9-1.6 3.7h-1.1c-0.5 0-0.5 0.1-0.7 1.1-0.1 0.4 0.1 0.4 0.4 0.4h1.1l-1.9 9.6c-0.1 0.4 0 0.5 0.5 0.5h2.5c0.4 0 0.5-0.2 0.6-0.6l1.9-9.5h1.4m16.6 1c0.1-0.5 0.2-1.1 1.2-1.1 0.5 0 0.7 0.3 0.8 0.7 0.1 0.6 0.3 1.1 1 1.1 0.8 0 1.4-0.6 1.6-1.5 0.4-2.1-1.9-2.1-2.5-2.1-1 0-3.2 0.2-4.6 0.8-0.6 0.3-0.8 0.5-0.9 1.3l-1.9 9.3c-0.1 0.4 0 0.5 0.4 0.5h2.6c0.4 0 0.5-0.1 0.6-0.5l1.7-8.5m3.9 8.5c-0.1 0.4 0.1 0.5 0.4 0.5h2.5c0.5 0 0.6-0.2 0.7-0.6l1.5-7.5c0.1-0.6 0.2-1 0.7-1.4 0.3-0.2 0.7-0.4 1.1-0.4s1 0.2 1.1 1c0 0.2 0 0.4-0.1 0.9l-1.5 7.4c-0.1 0.5 0.1 0.5 0.5 0.5h2.4c0.4 0 0.5-0.1 0.6-0.5l1.5-7.4c0.1-0.7 0.2-1.1 0.7-1.5 0.2-0.2 0.6-0.4 1.1-0.4 1.3 0 1.1 1.1 0.9 1.9l-1.5 7.4c-0.1 0.4 0 0.5 0.4 0.5h2.6c0.4 0 0.5-0.2 0.6-0.5l1.5-7.6c0.2-1 0.6-3.8-3.1-3.8-0.8 0-1.5 0.1-2.2 0.2-1.1 0.3-1.6 0.6-2.1 1-0.4-0.4-1.1-1.2-3.3-1.2-0.9 0-3.1 0.2-4.3 1-0.7 0.4-0.8 0.7-0.9 1.7l-1.8 8.8m41-8.5c0.1-0.5 0.2-1.1 1.2-1.1 0.5 0 0.7 0.3 0.8 0.7 0.1 0.6 0.3 1.1 1 1.1 0.8 0 1.4-0.6 1.6-1.5 0.4-2.1-1.9-2.1-2.5-2.1-1.1 0-3.2 0.2-4.6 0.8-0.6 0.3-0.8 0.5-0.9 1.3l-1.9 9.3c-0.1 0.4 0 0.5 0.4 0.5h2.6c0.4 0 0.5-0.1 0.6-0.5l1.7-8.5m26.8-1.8c0.1-0.1 0.3-0.3 0.3-0.5 0.1-0.3-0.3-0.3-0.4-0.3h-1.9c-0.5 0-0.6 0.1-1 0.5l-4.1 4 1.5-7.9c0.1-0.4-0.1-0.4-0.5-0.4h-2.5c-0.4 0-0.5 0.1-0.6 0.4l-2.8 14.4c-0.1 0.4 0 0.5 0.4 0.5h2.5c0.3 0 0.5 0 0.6-0.4l1-5 2.1 5c0.2 0.4 0.2 0.4 0.6 0.4h2.9c0.2 0 0.5 0 0.6-0.4 0-0.1 0-0.3-0.1-0.4l-2.8-6.1 4.2-3.8m23.1 2.1c0.1-0.6 0.3-1.7-0.8-2.5-0.2-0.2-1-0.7-3.4-0.7-0.9 0-2.1 0.1-3.1 0.4-2.3 0.5-2.4 1.3-2.6 2.1l-1.8 8.9c-0.1 0.4 0 0.6 0.4 0.6h2.5c0.4 0 0.6-0.1 0.7-0.5l1.5-7.7c0.1-0.7 0.4-1.8 1.8-1.8 0.4 0 0.8 0.1 1.1 0.4 0.3 0.4 0.2 0.7 0 1.4l-1.5 7.6c-0.1 0.4 0 0.5 0.4 0.5h2.5c0.5 0 0.6-0.1 0.7-0.6l1.6-8.1m-62.7 1.6 4.6-0.3c0-1.6-0.5-2.5-1.9-2.4-1.4 0-2.4 1.4-2.7 2.7m-0.3 2.2c0 0.3 0 0.8 0.1 1.2 0.3 1 1 1.3 2.1 1.3s2.3-1.1 2.8-1.6 0.7-0.6 1-0.6c0.4 0 0.6 0.3 0.5 0.8-0.1 0.7-1.5 3.9-5.1 4-4 0.1-4.7-3-4.2-6.1 0.8-4.4 3.9-6.1 6.3-6.1 3.6-0.1 4.3 2.9 3.7 5.4-0.2 1-1 1.2-1.4 1.2zm-63.2-2.2 4.6-0.3c0-1.6-0.5-2.5-1.9-2.4-1.5 0-2.5 1.4-2.7 2.7m-0.3 2.2c0 0.3 0 0.8 0.1 1.2 0.3 1 1 1.3 2.1 1.3s2.3-1.1 2.8-1.6 0.7-0.6 1-0.6c0.4 0 0.6 0.3 0.5 0.8-0.1 0.7-1.5 3.9-5.1 4-4 0.1-4.7-3-4.2-6.1 0.8-4.4 3.9-6.1 6.3-6.1 3.6-0.1 4.3 2.9 3.7 5.4-0.2 1-1 1.2-1.4 1.2z" fill="#253d97"/>
</svg>
