<?xml version="1.0" encoding="UTF-8"?>
<svg width="2550" height="674.7" version="1.1" viewBox="0 0 2550 674.7" xml:space="preserve" xmlns="http://www.w3.org/2000/svg"><defs><clipPath id="clipPath18"><path d="m0 866.5h2200v-866.5h-2200z"/></clipPath></defs><g transform="matrix(1.333 0 0 -1.333 -190.3 915)"><g clip-path="url(#clipPath18)"><g transform="translate(735.5 638.9)"><path d="m0 0c34.58 0 63.14-16.77 69.95-50.56l-29.86-4.453c-4.979 22.01-24.1 29.6-41.66 29.6-13.62 0-33.01-5.502-33.01-22.53 0-13.36 10.74-19.65 25.67-22.79l21.74-4.716c28.03-5.763 59.47-16.24 59.47-51.87 0-35.1-33.53-52.92-69.16-52.92-42.7 0-69.95 23.32-75.19 57.64l30.39 4.716c4.977-24.63 21.48-36.94 45.58-36.94 19.91 0 37.2 7.335 37.2 25.41 0 16.24-15.46 22.27-35.63 26.72l-21.48 4.715c-26.46 5.764-49.78 18.86-49.78 48.99 0 34.58 35.63 48.99 65.76 48.99" fill="#ee2722"/></g><g transform="translate(884.6 481.9)"><path d="m0 0c19.65 0 33.01 14.67 33.01 43.75 0 29.08-13.36 43.75-33.01 43.75-19.39 0-33.01-14.67-33.01-43.75 0-29.08 13.62-43.75 33.01-43.75m0 110.8c33.01 0 62.88-20.96 62.88-67.07s-29.86-67.07-62.88-67.07c-33.01 0-62.87 20.96-62.87 67.07s29.86 67.07 62.87 67.07" fill="#ee2722"/></g><g transform="translate(972.9 627.3)"><path d="m0 0h29.08v-37.2h26.2v-22.27h-26.2v-66.54c0-13.36 3.144-16.5 15.46-16.5h10.48v-23.05h-21.22c-28.03 0-33.8 7.597-33.8 34.32v71.78h-19.39v22.27h19.39z" fill="#ee2722"/></g><g transform="translate(1125 550.6)"><path d="m0 0c-2.882 12.58-14.41 20.17-30.65 20.17-13.1 0-24.1-4.715-24.1-13.36 0-8.122 7.859-12.58 19.91-15.2l15.2-3.144c26.2-5.764 48.46-13.1 48.46-38.25 0-27.24-25.67-42.18-56.06-42.18-33.8 0-55.54 19.12-58.16 42.44l28.29 4.192c2.357-13.88 12.31-24.63 30.91-24.63 15.98 0 26.46 5.763 26.46 16.24s-11.26 14.15-24.63 17.03l-17.03 3.668c-22.53 4.716-40.87 13.88-40.87 37.99 0 23.05 24.36 37.2 53.71 37.2 26.98 0 50.82-13.36 55.8-38.51z" fill="#ee2722"/></g><path d="m1203 461.8h-29.08v128.4h29.08zm0 144.6h-29.08v29.34h29.08z" fill="#ee2722"/><g transform="translate(1306 523.1)"><path d="m0 0-24.36-2.62c-22.01-2.358-31.7-8.383-31.7-20.17 0-11 8.645-18.86 22.53-18.86 17.03 0 33.53 9.693 33.53 33.8zm-81.74 28.03c1.834 25.41 22.53 42.18 56.32 42.18 37.2 0 53.18-13.36 53.18-49.25 0-8.383-0.523-29.86-0.523-36.94 0-16.5 0.787-29.87 2.619-45.32h-27.24l-0.786 15.46c-8.121-12.05-20.7-18.6-41.65-18.6-29.6 0-46.37 19.91-46.37 41.92 0 12.58 5.763 22.01 14.15 27.77 11.53 7.859 27.25 11 46.9 13.36l24.1 2.619v4.454c0 17.55-10.48 22.79-25.94 22.79-16.5 0-26.46-7.597-27.77-21.22z" fill="#ee2722"/></g><g transform="translate(1435 523.1)"><path d="m0 0-24.36-2.62c-22.01-2.358-31.7-8.383-31.7-20.17 0-11 8.645-18.86 22.53-18.86 17.03 0 33.53 9.693 33.53 33.8zm-81.74 28.03c1.834 25.41 22.53 42.18 56.32 42.18 37.2 0 53.18-13.36 53.18-49.25 0-8.383-0.524-29.86-0.524-36.94 0-16.5 0.787-29.87 2.619-45.32h-27.24l-0.787 15.46c-8.121-12.05-20.7-18.6-41.65-18.6-29.6 0-46.37 19.91-46.37 41.92 0 12.58 5.763 22.01 14.15 27.77 11.53 7.859 27.25 11 46.9 13.36l24.1 2.619v4.454c0 17.55-10.48 22.79-25.94 22.79-16.51 0-26.46-7.597-27.77-21.22z" fill="#ee2722"/></g><path d="m1514 461.8h-29.08v174h29.08z" fill="#ee2722"/><path d="m1539 540.4h79.38v-25.94h-79.38z" fill="#ee2722"/><g transform="translate(759.1 302.3)"><path d="m0 0c0 28.29-13.36 43.49-32.75 43.49-20.17 0-31.18-17.29-31.18-43.75s11-43.75 31.18-43.75c19.12 0 32.75 15.2 32.75 44.01m27.77-64.18h-27.77l-0.524 15.2c-8.383-12.05-20.96-18.34-38.25-18.34-31.96 0-55.02 25.15-55.02 67.33 0 41.13 24.36 66.8 57.11 66.8 16.77 0 28.29-7.074 35.37-16.5v59.47h29.08z" fill="#ee2722"/></g><g transform="translate(832.2 314.9)"><path d="m0 0h66.8c-0.786 19.65-14.93 31.96-32.49 31.96-17.03 0-33.27-9.693-34.32-31.96m-29.34-12.84c0 39.56 25.41 67.07 63.4 67.07 40.87 0 64.71-31.18 62.35-75.71h-96.41c0.524-21.22 14.67-35.11 34.32-35.11 18.34 0 27.51 8.646 31.96 20.17l28.03-3.668c-6.026-19.12-24.63-39.82-59.47-39.82-42.7 0-64.18 29.6-64.18 67.07" fill="#ee2722"/></g><g transform="translate(944 366.5)"><path d="m0 0h29.08v-15.98c7.073 11.79 19.65 18.6 37.72 18.6 21.74 0 31.44-9.693 37.2-20.96 9.955 13.88 23.32 20.96 43.75 20.96 14.67 0 26.2-4.977 33.01-13.1 7.073-8.383 10.22-20.43 10.22-38.51v-79.38h-29.08v73.09c0 12.31-1.31 20.96-5.502 26.2-3.668 4.977-9.431 7.597-18.6 7.597-21.22 0-27.77-17.29-27.77-39.82v-67.07h-29.08v73.09c0 12.58-1.31 21.22-5.502 26.46-3.929 4.715-9.693 7.335-18.34 7.335-21.48 0-28.03-17.29-28.03-39.82v-67.07h-29.08z" fill="#ee2722"/></g><g transform="translate(1212 258.3)"><path d="m0 0c19.65 0 33.01 14.67 33.01 43.75 0 29.08-13.36 43.75-33.01 43.75-19.39 0-33.01-14.67-33.01-43.75 0-29.08 13.62-43.75 33.01-43.75m0 110.8c33.01 0 62.88-20.96 62.88-67.07s-29.86-67.07-62.88-67.07c-33.01 0-62.87 20.96-62.87 67.07s29.86 67.07 62.87 67.07" fill="#ee2722"/></g><g transform="translate(1319 412)"><path d="m0 0v-96.15l48.46 50.56h34.58l-46.11-47.94 49.52-80.43h-33.53l-36.15 59.47-16.77-17.55v-41.92h-29.08v174z" fill="#ee2722"/></g><g transform="translate(1484 337.6)"><path d="m0 0c-4.715 0.523-8.906 0.786-13.36 0.786-18.08 0-28.56-8.122-28.56-34.32v-66.02h-29.08v128.4h28.56v-21.22c7.074 13.88 19.65 21.22 35.37 21.48 2.357 0 4.976-0.262 7.072-0.523z" fill="#ee2722"/></g><g transform="translate(1573 299.4)"><path d="m0 0-24.36-2.62c-22.01-2.358-31.7-8.383-31.7-20.17 0-11 8.646-18.86 22.53-18.86 17.03 0 33.53 9.693 33.53 33.8zm-81.74 28.03c1.834 25.41 22.53 42.18 56.33 42.18 37.2 0 53.18-13.36 53.18-49.25 0-8.383-0.524-29.86-0.524-36.94 0-16.5 0.785-29.87 2.619-45.32h-27.25l-0.785 15.46c-8.121-12.05-20.7-18.6-41.65-18.6-29.6 0-46.37 19.91-46.37 41.92 0 12.58 5.763 22.01 14.15 27.77 11.53 7.86 27.25 11 46.9 13.36l24.1 2.62v4.453c0 17.55-10.48 22.79-25.94 22.79-16.5 0-26.46-7.597-27.77-21.22z" fill="#ee2722"/></g><g transform="translate(1702 299.4)"><path d="m0 0-24.36-2.62c-22.01-2.358-31.7-8.383-31.7-20.17 0-11 8.646-18.86 22.53-18.86 17.03 0 33.53 9.693 33.53 33.8zm-81.74 28.03c1.834 25.41 22.53 42.18 56.33 42.18 37.2 0 53.18-13.36 53.18-49.25 0-8.383-0.524-29.86-0.524-36.94 0-16.5 0.785-29.87 2.619-45.32h-27.25l-0.785 15.46c-8.121-12.05-20.7-18.6-41.65-18.6-29.6 0-46.37 19.91-46.37 41.92 0 12.58 5.763 22.01 14.15 27.77 11.53 7.86 27.25 11 46.9 13.36l24.1 2.62v4.453c0 17.55-10.48 22.79-25.94 22.79-16.5 0-26.46-7.597-27.77-21.22z" fill="#ee2722"/></g><g transform="translate(1837 302.3)"><path d="m0 0c0 28.29-13.36 43.49-32.75 43.49-20.17 0-31.18-17.29-31.18-43.75s11-43.75 31.18-43.75c19.12 0 32.75 15.2 32.75 44.01m27.77-64.18h-27.77l-0.525 15.2c-8.383-12.05-20.96-18.34-38.25-18.34-31.96 0-55.02 25.15-55.02 67.33 0 41.13 24.36 66.8 57.11 66.8 16.77 0 28.29-7.074 35.37-16.5v59.47h29.08z" fill="#ee2722"/></g><path d="m1918 238.1h-29.08v128.4h29.08zm0 144.6h-29.08v29.34h29.08z" fill="#ee2722"/><g transform="translate(2028 302.3)"><path d="m0 0c0 28.29-13.36 43.49-32.75 43.49-20.17 0-31.18-17.29-31.18-43.75s11-43.75 31.18-43.75c19.12 0 32.75 15.2 32.75 44.01m27.77-64.18h-27.77l-0.523 15.2c-8.383-12.05-20.96-18.34-38.25-18.34-31.96 0-55.01 25.15-55.01 67.33 0 41.13 24.36 66.8 57.11 66.8 16.77 0 28.29-7.074 35.36-16.5v59.47h29.08z" fill="#ee2722"/></g><g transform="translate(310 180.2)"><path d="m0 0h57l18 49c-18 0-34 2-46 8-14-6-29-8-46-8z" fill="#093d22"/></g><g transform="translate(409 255.2)"><path d="m0 0c42 8 70 25 90 49 53 63-20 233 19 327-70-41-262-173-227-318 14-59 94-62 118-58m-104-1s-58 32-40 127c9 58 58 118 58 118-41 53-131 114-177 139 31-64 0-188-3-254-8-134 153-131 162-130m-31 327c13 13 28 26 44 39-28 20-59 39-93 57 1-20 2-40 2-60 16-11 32-23 47-36m65-62c29 33 66 66 109 96 0 20 1 41 3 61-64-34-118-71-158-111 17-15 32-31 46-46m0 117c9 7 19 13 29 20l-29 30-30-30z" fill="#ee2722"/></g></g></g></svg>
