<svg width="50" height="50" viewBox="0 0 50 50" fill="none" xmlns="http://www.w3.org/2000/svg">
<g clip-path="url(#clip0)">
<path d="M1.5625 24.9988C1.5625 40.5388 16.4617 51.836 31.4787 47.5263C41.3504 44.69 48.4317 35.6129 48.4317 24.9988C48.4317 12.0583 37.9421 1.56415 24.9971 1.56415C12.0539 1.56415 1.5625 12.0565 1.5625 24.9988Z" fill="#A2D0FF"/>
<path d="M2.87093 32.739C6.05345 41.8344 14.7165 48.4334 24.9971 48.4334C33.8889 48.4334 41.7907 43.4545 45.77 35.8568C43.491 32.3744 38.5633 29.7808 34.741 31.3564C33.6455 31.8085 32.71 32.575 31.6662 33.1365C29.0123 34.563 25.6357 34.5455 22.9964 33.0915C20.8131 31.8886 19.2215 29.8468 17.1983 28.3909C15.1751 26.9351 12.2311 26.1568 10.2704 27.6967C8.6837 28.9436 8.22281 31.3476 6.4535 32.3162C5.38137 32.9021 4.11004 32.8054 2.87093 32.739V32.739Z" fill="#8BC4FF"/>
<path d="M14.7767 26.6625H35.2277C36.4826 26.6625 37.5 25.9181 37.5 25C37.5 24.0819 36.4826 23.3375 35.2277 23.3375H14.7767C13.5219 23.3375 12.5044 24.0819 12.5044 25C12.5044 25.9181 13.5217 26.6625 14.7767 26.6625Z" fill="#2E58FF"/>
<path d="M1.56249 26.6613C2.43407 26.6613 3.13428 25.9499 3.125 25.0823C3.12441 25.0265 3.12441 24.9713 3.125 24.9155C3.13418 24.0527 2.44227 23.3458 1.57948 23.3366C0.717378 23.3294 0.00974613 24.0193 0.000567536 24.8821C-0.000311265 24.9602 -0.000311265 25.0376 0.000567536 25.1157C0.00974613 25.9727 0.707417 26.6613 1.56249 26.6613V26.6613Z" fill="#2E58FF"/>
<path d="M42.6729 42.6743C52.4417 32.9055 52.4431 17.0935 42.6729 7.32331C37.0417 1.69207 29.3304 -0.738099 21.8727 0.197138C11.0445 1.5539 2.86811 9.60809 0.629514 19.4122C0.437448 20.2534 0.963651 21.091 1.80486 21.283C2.64616 21.4749 3.48365 20.9489 3.67572 20.1077C7.50484 3.33806 28.3424 -2.58816 40.4635 9.53271C48.9914 18.0608 48.9914 31.9369 40.4635 40.4649C32.0849 48.8434 18.2052 49.1386 9.53135 40.4649C6.59645 37.53 4.56624 33.8495 3.6601 29.821C3.47076 28.9792 2.63473 28.4504 1.79304 28.6396C0.95125 28.829 0.422312 29.6649 0.611644 30.5067C4.88631 49.5109 28.6792 56.6681 42.6729 42.6743V42.6743Z" fill="#2E58FF"/>
</g>
<defs>
<clipPath id="clip0">
<rect width="50" height="50" fill="white" transform="matrix(-1 0 0 1 50 0)"/>
</clipPath>
</defs>
</svg>
