<svg width="50" height="50" viewBox="0 0 50 50" fill="none" xmlns="http://www.w3.org/2000/svg">
<g clip-path="url(#clip0)">
<path d="M48.4375 24.9988C48.4375 40.5388 33.5383 51.836 18.5213 47.5263C8.64962 44.69 1.56827 35.6129 1.56827 24.9988C1.56827 12.0583 12.0579 1.56415 25.0029 1.56415C37.9461 1.56415 48.4375 12.0565 48.4375 24.9988Z" fill="#A2D0FF"/>
<path d="M47.1291 32.739C43.9465 41.8344 35.2835 48.4334 25.0029 48.4334C16.1111 48.4334 8.20934 43.4545 4.23004 35.8568C6.50896 32.3744 11.4367 29.7808 15.259 31.3564C16.3545 31.8085 17.29 32.575 18.3338 33.1365C20.9877 34.563 24.3643 34.5455 27.0036 33.0915C29.1869 31.8886 30.7785 29.8468 32.8017 28.3909C34.8249 26.9351 37.7689 26.1568 39.7296 27.6967C41.3163 28.9436 41.7772 31.3476 43.5465 32.3162C44.6186 32.9021 45.89 32.8054 47.1291 32.739V32.739Z" fill="#8BC4FF"/>
<path d="M35.2233 26.6625H14.7723C13.5174 26.6625 12.5 25.9181 12.5 25C12.5 24.0819 13.5174 23.3375 14.7723 23.3375H35.2233C36.4781 23.3375 37.4956 24.0819 37.4956 25C37.4956 25.9181 36.4783 26.6625 35.2233 26.6625Z" fill="#2E58FF"/>
<path d="M24 35.2255L24 14.7746C24 13.5197 24.7444 12.5023 25.6625 12.5023C26.5806 12.5023 27.325 13.5197 27.325 14.7746L27.325 35.2255C27.325 36.4804 26.5806 37.4978 25.6625 37.4978C24.7444 37.4978 24 36.4805 24 35.2255Z" fill="#2E58FF"/>
<path d="M48.4375 26.6613C47.5659 26.6613 46.8657 25.9499 46.875 25.0823C46.8756 25.0265 46.8756 24.9713 46.875 24.9155C46.8658 24.0527 47.5577 23.3458 48.4205 23.3366C49.2826 23.3294 49.9903 24.0193 49.9994 24.8821C50.0003 24.9602 50.0003 25.0376 49.9994 25.1157C49.9903 25.9727 49.2926 26.6613 48.4375 26.6613V26.6613Z" fill="#2E58FF"/>
<path d="M7.32713 42.6743C-2.44169 32.9055 -2.44306 17.0935 7.32713 7.32331C12.9583 1.69207 20.6696 -0.738099 28.1273 0.197138C38.9555 1.5539 47.1319 9.60809 49.3705 19.4122C49.5626 20.2534 49.0363 21.091 48.1951 21.283C47.3538 21.4749 46.5163 20.9489 46.3243 20.1077C42.4952 3.33806 21.6576 -2.58816 9.53652 9.53271C1.00857 18.0608 1.00857 31.9369 9.53652 40.4649C17.9151 48.8434 31.7948 49.1386 40.4687 40.4649C43.4035 37.53 45.4338 33.8495 46.3399 29.821C46.5292 28.9792 47.3653 28.4504 48.207 28.6396C49.0487 28.829 49.5777 29.6649 49.3884 30.5067C45.1137 49.5109 21.3208 56.6681 7.32713 42.6743V42.6743Z" fill="#2E58FF"/>
</g>
<defs>
<clipPath id="clip0">
<rect width="50" height="50" fill="white"/>
</clipPath>
</defs>
</svg>
